<svg xmlns="http://www.w3.org/2000/svg" width="400" height="400" fill="none"><g filter="url(#a)"><ellipse cx="200.5" cy="200" fill="url(#b)" rx="104.5" ry="104"/></g><path stroke="#D87D19" stroke-linecap="round" stroke-width="4" d="M208 176v-43.8L241 99"/><g fill="#fff" clip-path="url(#c)"><g opacity=".8"><circle cx="85.5" cy="261.8" r=".8" transform="rotate(-90 85.5 261.8)"/><circle cx="85.5" cy="256" r=".8" transform="rotate(-90 85.5 256)"/><circle cx="85.5" cy="250.2" r=".8" transform="rotate(-90 85.5 250.2)"/><circle cx="85.5" cy="244.4" r=".8" transform="rotate(-90 85.5 244.4)"/><circle cx="85.5" cy="238.6" r=".8" transform="rotate(-90 85.5 238.6)"/><circle cx="85.5" cy="232.8" r=".8" transform="rotate(-90 85.5 232.8)"/><circle cx="85.5" cy="226.2" r=".8" transform="rotate(-90 85.5 226.2)"/><circle cx="85.5" cy="220.4" r=".8" transform="rotate(-90 85.5 220.4)"/><circle cx="85.5" cy="214.6" r=".8" transform="rotate(-90 85.5 214.6)"/><circle cx="85.5" cy="208.8" r=".8" transform="rotate(-90 85.5 208.8)"/><circle cx="85.5" cy="203.1" r=".8" transform="rotate(-90 85.5 203)"/><circle cx="85.5" cy="197.3" r=".8" transform="rotate(-90 85.5 197.3)"/><circle cx="85.5" cy="191.5" r=".8" transform="rotate(-90 85.5 191.5)"/><circle cx="85.5" cy="184.8" r=".8" transform="rotate(-90 85.5 184.8)"/><circle cx="85.5" cy="179.1" r=".8" transform="rotate(-90 85.5 179)"/><circle cx="85.5" cy="173.3" r=".8" transform="rotate(-90 85.5 173.3)"/><circle cx="85.5" cy="167.5" r=".8" transform="rotate(-90 85.5 167.5)"/><circle cx="85.5" cy="161.7" r=".8" transform="rotate(-90 85.5 161.7)"/><circle cx="85.5" cy="155.9" r=".8" transform="rotate(-90 85.5 155.9)"/><circle cx="85.5" cy="150.1" r=".8" transform="rotate(-90 85.5 150.1)"/><circle cx="85.5" cy="143.5" r=".8" transform="rotate(-90 85.5 143.5)"/><circle cx="85.5" cy="137.7" r=".8" transform="rotate(-90 85.5 137.7)"/><circle cx="91.3" cy="261.8" r=".8" transform="rotate(-90 91.3 261.8)"/><circle cx="91.3" cy="256" r=".8" transform="rotate(-90 91.3 256)"/><circle cx="91.3" cy="250.2" r=".8" transform="rotate(-90 91.3 250.2)"/><circle cx="91.3" cy="244.4" r=".8" transform="rotate(-90 91.3 244.4)"/><circle cx="91.3" cy="238.6" r=".8" transform="rotate(-90 91.3 238.6)"/><circle cx="91.3" cy="232.8" r=".8" transform="rotate(-90 91.3 232.8)"/><circle cx="91.3" cy="226.2" r=".8" transform="rotate(-90 91.3 226.2)"/><circle cx="91.3" cy="220.4" r=".8" transform="rotate(-90 91.3 220.4)"/><circle cx="91.3" cy="214.6" r=".8" transform="rotate(-90 91.3 214.6)"/><circle cx="91.3" cy="208.8" r=".8" transform="rotate(-90 91.3 208.8)"/><circle cx="91.3" cy="203.1" r=".8" transform="rotate(-90 91.3 203)"/><circle cx="91.3" cy="197.3" r=".8" transform="rotate(-90 91.3 197.3)"/><circle cx="91.3" cy="191.5" r=".8" transform="rotate(-90 91.3 191.5)"/><circle cx="91.3" cy="184.8" r=".8" transform="rotate(-90 91.3 184.8)"/><circle cx="91.3" cy="179.1" r=".8" transform="rotate(-90 91.3 179)"/><circle cx="91.3" cy="173.3" r=".8" transform="rotate(-90 91.3 173.3)"/><circle cx="91.3" cy="167.5" r=".8" transform="rotate(-90 91.3 167.5)"/><circle cx="91.3" cy="161.7" r=".8" transform="rotate(-90 91.3 161.7)"/><circle cx="91.3" cy="155.9" r=".8" transform="rotate(-90 91.3 155.9)"/><circle cx="91.3" cy="150.1" r=".8" transform="rotate(-90 91.3 150.1)"/><circle cx="91.3" cy="143.5" r=".8" transform="rotate(-90 91.3 143.5)"/><circle cx="91.3" cy="137.7" r=".8" transform="rotate(-90 91.3 137.7)"/><circle cx="97.1" cy="261.8" r=".8" transform="rotate(-90 97 261.8)"/><circle cx="97.1" cy="256" r=".8" transform="rotate(-90 97 256)"/><circle cx="97.1" cy="250.2" r=".8" transform="rotate(-90 97 250.2)"/><circle cx="97.1" cy="244.4" r=".8" transform="rotate(-90 97 244.4)"/><circle cx="97.1" cy="238.6" r=".8" transform="rotate(-90 97 238.6)"/><circle cx="97.1" cy="232.8" r=".8" transform="rotate(-90 97 232.8)"/><circle cx="97.1" cy="226.2" r=".8" transform="rotate(-90 97 226.2)"/><circle cx="97.1" cy="220.4" r=".8" transform="rotate(-90 97 220.4)"/><circle cx="97.1" cy="214.6" r=".8" transform="rotate(-90 97 214.6)"/><circle cx="97.1" cy="208.8" r=".8" transform="rotate(-90 97 208.8)"/><circle cx="97.1" cy="203.1" r=".8" transform="rotate(-90 97 203)"/><circle cx="97.1" cy="197.3" r=".8" transform="rotate(-90 97 197.3)"/><circle cx="97.1" cy="191.5" r=".8" transform="rotate(-90 97 191.5)"/><circle cx="97.1" cy="184.8" r=".8" transform="rotate(-90 97 184.8)"/><circle cx="97.1" cy="179.1" r=".8" transform="rotate(-90 97 179)"/><circle cx="97.1" cy="173.3" r=".8" transform="rotate(-90 97 173.3)"/><circle cx="97.1" cy="167.5" r=".8" transform="rotate(-90 97 167.5)"/><circle cx="97.1" cy="161.7" r=".8" transform="rotate(-90 97 161.7)"/><circle cx="97.1" cy="155.9" r=".8" transform="rotate(-90 97 155.9)"/><circle cx="97.1" cy="150.1" r=".8" transform="rotate(-90 97 150.1)"/><circle cx="97.1" cy="143.5" r=".8" transform="rotate(-90 97 143.5)"/><circle cx="97.1" cy="137.7" r=".8" transform="rotate(-90 97 137.7)"/><circle cx="102.9" cy="261.8" r=".8" transform="rotate(-90 102.9 261.8)"/><circle cx="102.9" cy="256" r=".8" transform="rotate(-90 102.9 256)"/><circle cx="102.9" cy="250.2" r=".8" transform="rotate(-90 102.9 250.2)"/><circle cx="102.9" cy="244.4" r=".8" transform="rotate(-90 102.9 244.4)"/><circle cx="102.9" cy="238.6" r=".8" transform="rotate(-90 102.9 238.6)"/><circle cx="102.9" cy="232.8" r=".8" transform="rotate(-90 102.9 232.8)"/><circle cx="102.9" cy="226.2" r=".8" transform="rotate(-90 102.9 226.2)"/><circle cx="102.9" cy="220.4" r=".8" transform="rotate(-90 102.9 220.4)"/><circle cx="102.9" cy="214.6" r=".8" transform="rotate(-90 102.9 214.6)"/><circle cx="102.9" cy="208.8" r=".8" transform="rotate(-90 102.9 208.8)"/><circle cx="102.9" cy="203.1" r=".8" transform="rotate(-90 102.9 203)"/><circle cx="102.9" cy="197.3" r=".8" transform="rotate(-90 102.9 197.3)"/><circle cx="102.9" cy="191.5" r=".8" transform="rotate(-90 102.9 191.5)"/><circle cx="102.9" cy="184.8" r=".8" transform="rotate(-90 102.9 184.8)"/><circle cx="102.9" cy="179.1" r=".8" transform="rotate(-90 102.9 179)"/><circle cx="102.9" cy="173.3" r=".8" transform="rotate(-90 102.9 173.3)"/><circle cx="102.9" cy="167.5" r=".8" transform="rotate(-90 102.9 167.5)"/><circle cx="102.9" cy="161.7" r=".8" transform="rotate(-90 102.9 161.7)"/><circle cx="102.9" cy="155.9" r=".8" transform="rotate(-90 102.9 155.9)"/><circle cx="102.9" cy="150.1" r=".8" transform="rotate(-90 102.9 150.1)"/><circle cx="102.9" cy="143.5" r=".8" transform="rotate(-90 102.9 143.5)"/><circle cx="102.9" cy="137.7" r=".8" transform="rotate(-90 102.9 137.7)"/><circle cx="108.6" cy="261.8" r=".8" transform="rotate(-90 108.6 261.8)"/><circle cx="108.6" cy="256" r=".8" transform="rotate(-90 108.6 256)"/><circle cx="108.6" cy="250.2" r=".8" transform="rotate(-90 108.6 250.2)"/><circle cx="108.6" cy="244.4" r=".8" transform="rotate(-90 108.6 244.4)"/><circle cx="108.6" cy="238.6" r=".8" transform="rotate(-90 108.6 238.6)"/><circle cx="108.6" cy="232.8" r=".8" transform="rotate(-90 108.6 232.8)"/><circle cx="108.6" cy="226.2" r=".8" transform="rotate(-90 108.6 226.2)"/><circle cx="108.6" cy="220.4" r=".8" transform="rotate(-90 108.6 220.4)"/><circle cx="108.6" cy="214.6" r=".8" transform="rotate(-90 108.6 214.6)"/><circle cx="108.6" cy="208.8" r=".8" transform="rotate(-90 108.6 208.8)"/><circle cx="108.6" cy="203.1" r=".8" transform="rotate(-90 108.6 203)"/><circle cx="108.6" cy="197.3" r=".8" transform="rotate(-90 108.6 197.3)"/><circle cx="108.6" cy="191.5" r=".8" transform="rotate(-90 108.6 191.5)"/><circle cx="108.6" cy="184.8" r=".8" transform="rotate(-90 108.6 184.8)"/><circle cx="108.6" cy="179.1" r=".8" transform="rotate(-90 108.6 179)"/><circle cx="108.6" cy="173.3" r=".8" transform="rotate(-90 108.6 173.3)"/><circle cx="108.6" cy="167.5" r=".8" transform="rotate(-90 108.6 167.5)"/><circle cx="108.6" cy="161.7" r=".8" transform="rotate(-90 108.6 161.7)"/><circle cx="108.6" cy="155.9" r=".8" transform="rotate(-90 108.6 155.9)"/><circle cx="108.6" cy="150.1" r=".8" transform="rotate(-90 108.6 150.1)"/><circle cx="108.6" cy="143.5" r=".8" transform="rotate(-90 108.6 143.5)"/><circle cx="108.6" cy="137.7" r=".8" transform="rotate(-90 108.6 137.7)"/><circle cx="114.4" cy="261.8" r=".8" transform="rotate(-90 114.4 261.8)"/><circle cx="114.4" cy="256" r=".8" transform="rotate(-90 114.4 256)"/><circle cx="114.4" cy="250.2" r=".8" transform="rotate(-90 114.4 250.2)"/><circle cx="114.4" cy="244.4" r=".8" transform="rotate(-90 114.4 244.4)"/><circle cx="114.4" cy="238.6" r=".8" transform="rotate(-90 114.4 238.6)"/><circle cx="114.4" cy="232.8" r=".8" transform="rotate(-90 114.4 232.8)"/><circle cx="114.4" cy="226.2" r=".8" transform="rotate(-90 114.4 226.2)"/><circle cx="114.4" cy="220.4" r=".8" transform="rotate(-90 114.4 220.4)"/><circle cx="114.4" cy="214.6" r=".8" transform="rotate(-90 114.4 214.6)"/><circle cx="114.4" cy="208.8" r=".8" transform="rotate(-90 114.4 208.8)"/><circle cx="114.4" cy="203.1" r=".8" transform="rotate(-90 114.4 203)"/><circle cx="114.4" cy="197.3" r=".8" transform="rotate(-90 114.4 197.3)"/><circle cx="114.4" cy="191.5" r=".8" transform="rotate(-90 114.4 191.5)"/><circle cx="114.4" cy="184.8" r=".8" transform="rotate(-90 114.4 184.8)"/><circle cx="114.4" cy="179.1" r=".8" transform="rotate(-90 114.4 179)"/><circle cx="114.4" cy="173.3" r=".8" transform="rotate(-90 114.4 173.3)"/><circle cx="114.4" cy="167.5" r=".8" transform="rotate(-90 114.4 167.5)"/><circle cx="114.4" cy="161.7" r=".8" transform="rotate(-90 114.4 161.7)"/><circle cx="114.4" cy="155.9" r=".8" transform="rotate(-90 114.4 155.9)"/><circle cx="114.4" cy="150.1" r=".8" transform="rotate(-90 114.4 150.1)"/><circle cx="114.4" cy="143.5" r=".8" transform="rotate(-90 114.4 143.5)"/><circle cx="114.4" cy="137.7" r=".8" transform="rotate(-90 114.4 137.7)"/><circle cx="120.2" cy="261.8" r=".8" transform="rotate(-90 120.2 261.8)"/><circle cx="120.2" cy="256" r=".8" transform="rotate(-90 120.2 256)"/><circle cx="120.2" cy="250.2" r=".8" transform="rotate(-90 120.2 250.2)"/><circle cx="120.2" cy="244.4" r=".8" transform="rotate(-90 120.2 244.4)"/><circle cx="120.2" cy="238.6" r=".8" transform="rotate(-90 120.2 238.6)"/><circle cx="120.2" cy="232.8" r=".8" transform="rotate(-90 120.2 232.8)"/><circle cx="120.2" cy="226.2" r=".8" transform="rotate(-90 120.2 226.2)"/><circle cx="120.2" cy="220.4" r=".8" transform="rotate(-90 120.2 220.4)"/><circle cx="120.2" cy="214.6" r=".8" transform="rotate(-90 120.2 214.6)"/><circle cx="120.2" cy="208.8" r=".8" transform="rotate(-90 120.2 208.8)"/><circle cx="120.2" cy="203.1" r=".8" transform="rotate(-90 120.2 203)"/><circle cx="120.2" cy="197.3" r=".8" transform="rotate(-90 120.2 197.3)"/><circle cx="120.2" cy="191.5" r=".8" transform="rotate(-90 120.2 191.5)"/><circle cx="120.2" cy="184.8" r=".8" transform="rotate(-90 120.2 184.8)"/><circle cx="120.2" cy="179.1" r=".8" transform="rotate(-90 120.2 179)"/><circle cx="120.2" cy="173.3" r=".8" transform="rotate(-90 120.2 173.3)"/><circle cx="120.2" cy="167.5" r=".8" transform="rotate(-90 120.2 167.5)"/><circle cx="120.2" cy="161.7" r=".8" transform="rotate(-90 120.2 161.7)"/><circle cx="120.2" cy="155.9" r=".8" transform="rotate(-90 120.2 155.9)"/><circle cx="120.2" cy="150.1" r=".8" transform="rotate(-90 120.2 150.1)"/><circle cx="120.2" cy="143.5" r=".8" transform="rotate(-90 120.2 143.5)"/><circle cx="120.2" cy="137.7" r=".8" transform="rotate(-90 120.2 137.7)"/><circle cx="126.9" cy="261.8" r=".8" transform="rotate(-90 126.9 261.8)"/><circle cx="126.9" cy="256" r=".8" transform="rotate(-90 126.9 256)"/><circle cx="126.9" cy="250.2" r=".8" transform="rotate(-90 126.9 250.2)"/><circle cx="126.9" cy="244.4" r=".8" transform="rotate(-90 126.9 244.4)"/><circle cx="126.9" cy="238.6" r=".8" transform="rotate(-90 126.9 238.6)"/><circle cx="126.9" cy="232.8" r=".8" transform="rotate(-90 126.9 232.8)"/><circle cx="126.9" cy="226.2" r=".8" transform="rotate(-90 126.9 226.2)"/><circle cx="126.9" cy="220.4" r=".8" transform="rotate(-90 126.9 220.4)"/><circle cx="126.9" cy="214.6" r=".8" transform="rotate(-90 126.9 214.6)"/><circle cx="126.9" cy="208.8" r=".8" transform="rotate(-90 126.9 208.8)"/><circle cx="126.9" cy="203.1" r=".8" transform="rotate(-90 126.9 203)"/><circle cx="126.9" cy="197.3" r=".8" transform="rotate(-90 126.9 197.3)"/><circle cx="126.9" cy="191.5" r=".8" transform="rotate(-90 126.9 191.5)"/><circle cx="126.9" cy="184.8" r=".8" transform="rotate(-90 126.9 184.8)"/><circle cx="126.9" cy="179.1" r=".8" transform="rotate(-90 126.9 179)"/><circle cx="126.9" cy="173.3" r=".8" transform="rotate(-90 126.9 173.3)"/><circle cx="126.9" cy="167.5" r=".8" transform="rotate(-90 126.9 167.5)"/><circle cx="126.9" cy="161.7" r=".8" transform="rotate(-90 126.9 161.7)"/><circle cx="126.9" cy="155.9" r=".8" transform="rotate(-90 126.9 155.9)"/><circle cx="126.9" cy="150.1" r=".8" transform="rotate(-90 126.9 150.1)"/><circle cx="126.9" cy="143.5" r=".8" transform="rotate(-90 126.9 143.5)"/><circle cx="126.9" cy="137.7" r=".8" transform="rotate(-90 126.9 137.7)"/><circle cx="132.6" cy="261.8" r=".8" transform="rotate(-90 132.6 261.8)"/><circle cx="132.6" cy="256" r=".8" transform="rotate(-90 132.6 256)"/><circle cx="132.6" cy="250.2" r=".8" transform="rotate(-90 132.6 250.2)"/><circle cx="132.6" cy="244.4" r=".8" transform="rotate(-90 132.6 244.4)"/><circle cx="132.6" cy="238.6" r=".8" transform="rotate(-90 132.6 238.6)"/><circle cx="132.6" cy="232.8" r=".8" transform="rotate(-90 132.6 232.8)"/><circle cx="132.6" cy="226.2" r=".8" transform="rotate(-90 132.6 226.2)"/><circle cx="132.6" cy="220.4" r=".8" transform="rotate(-90 132.6 220.4)"/><circle cx="132.6" cy="214.6" r=".8" transform="rotate(-90 132.6 214.6)"/><circle cx="132.6" cy="208.8" r=".8" transform="rotate(-90 132.6 208.8)"/><circle cx="132.6" cy="203.1" r=".8" transform="rotate(-90 132.6 203)"/><circle cx="132.6" cy="197.3" r=".8" transform="rotate(-90 132.6 197.3)"/><circle cx="132.6" cy="191.5" r=".8" transform="rotate(-90 132.6 191.5)"/><circle cx="132.6" cy="184.8" r=".8" transform="rotate(-90 132.6 184.8)"/><circle cx="132.6" cy="179.1" r=".8" transform="rotate(-90 132.6 179)"/><circle cx="132.6" cy="173.3" r=".8" transform="rotate(-90 132.6 173.3)"/><circle cx="132.6" cy="167.5" r=".8" transform="rotate(-90 132.6 167.5)"/><circle cx="132.6" cy="161.7" r=".8" transform="rotate(-90 132.6 161.7)"/><circle cx="132.6" cy="155.9" r=".8" transform="rotate(-90 132.6 155.9)"/><circle cx="132.6" cy="150.1" r=".8" transform="rotate(-90 132.6 150.1)"/><circle cx="132.6" cy="143.5" r=".8" transform="rotate(-90 132.6 143.5)"/><circle cx="132.6" cy="137.7" r=".8" transform="rotate(-90 132.6 137.7)"/><circle cx="138.4" cy="261.8" r=".8" transform="rotate(-90 138.4 261.8)"/><circle cx="138.4" cy="256" r=".8" transform="rotate(-90 138.4 256)"/><circle cx="138.4" cy="250.2" r=".8" transform="rotate(-90 138.4 250.2)"/><circle cx="138.4" cy="244.4" r=".8" transform="rotate(-90 138.4 244.4)"/><circle cx="138.4" cy="238.6" r=".8" transform="rotate(-90 138.4 238.6)"/><circle cx="138.4" cy="232.8" r=".8" transform="rotate(-90 138.4 232.8)"/><circle cx="138.4" cy="226.2" r=".8" transform="rotate(-90 138.4 226.2)"/><circle cx="138.4" cy="220.4" r=".8" transform="rotate(-90 138.4 220.4)"/><circle cx="138.4" cy="214.6" r=".8" transform="rotate(-90 138.4 214.6)"/><circle cx="138.4" cy="208.8" r=".8" transform="rotate(-90 138.4 208.8)"/><circle cx="138.4" cy="203.1" r=".8" transform="rotate(-90 138.4 203)"/><circle cx="138.4" cy="197.3" r=".8" transform="rotate(-90 138.4 197.3)"/><circle cx="138.4" cy="191.5" r=".8" transform="rotate(-90 138.4 191.5)"/><circle cx="138.4" cy="184.8" r=".8" transform="rotate(-90 138.4 184.8)"/><circle cx="138.4" cy="179.1" r=".8" transform="rotate(-90 138.4 179)"/><circle cx="138.4" cy="173.3" r=".8" transform="rotate(-90 138.4 173.3)"/><circle cx="138.4" cy="167.5" r=".8" transform="rotate(-90 138.4 167.5)"/><circle cx="138.4" cy="161.7" r=".8" transform="rotate(-90 138.4 161.7)"/><circle cx="138.4" cy="155.9" r=".8" transform="rotate(-90 138.4 155.9)"/><circle cx="138.4" cy="150.1" r=".8" transform="rotate(-90 138.4 150.1)"/><circle cx="138.4" cy="143.5" r=".8" transform="rotate(-90 138.4 143.5)"/><circle cx="138.4" cy="137.7" r=".8" transform="rotate(-90 138.4 137.7)"/><circle cx="144.2" cy="261.8" r=".8" transform="rotate(-90 144.2 261.8)"/><circle cx="144.2" cy="256" r=".8" transform="rotate(-90 144.2 256)"/><circle cx="144.2" cy="250.2" r=".8" transform="rotate(-90 144.2 250.2)"/><circle cx="144.2" cy="244.4" r=".8" transform="rotate(-90 144.2 244.4)"/><circle cx="144.2" cy="238.6" r=".8" transform="rotate(-90 144.2 238.6)"/><circle cx="144.2" cy="232.8" r=".8" transform="rotate(-90 144.2 232.8)"/><circle cx="144.2" cy="226.2" r=".8" transform="rotate(-90 144.2 226.2)"/><circle cx="144.2" cy="220.4" r=".8" transform="rotate(-90 144.2 220.4)"/><circle cx="144.2" cy="214.6" r=".8" transform="rotate(-90 144.2 214.6)"/><circle cx="144.2" cy="208.8" r=".8" transform="rotate(-90 144.2 208.8)"/><circle cx="144.2" cy="203.1" r=".8" transform="rotate(-90 144.2 203)"/><circle cx="144.2" cy="197.3" r=".8" transform="rotate(-90 144.2 197.3)"/><circle cx="144.2" cy="191.5" r=".8" transform="rotate(-90 144.2 191.5)"/><circle cx="144.2" cy="184.8" r=".8" transform="rotate(-90 144.2 184.8)"/><circle cx="144.2" cy="179.1" r=".8" transform="rotate(-90 144.2 179)"/><circle cx="144.2" cy="173.3" r=".8" transform="rotate(-90 144.2 173.3)"/><circle cx="144.2" cy="167.5" r=".8" transform="rotate(-90 144.2 167.5)"/><circle cx="144.2" cy="161.7" r=".8" transform="rotate(-90 144.2 161.7)"/><circle cx="144.2" cy="155.9" r=".8" transform="rotate(-90 144.2 155.9)"/><circle cx="144.2" cy="150.1" r=".8" transform="rotate(-90 144.2 150.1)"/><circle cx="144.2" cy="143.5" r=".8" transform="rotate(-90 144.2 143.5)"/><circle cx="144.2" cy="137.7" r=".8" transform="rotate(-90 144.2 137.7)"/><circle cx="150" cy="261.8" r=".8" transform="rotate(-90 150 261.8)"/><circle cx="150" cy="256" r=".8" transform="rotate(-90 150 256)"/><circle cx="150" cy="250.2" r=".8" transform="rotate(-90 150 250.2)"/><circle cx="150" cy="244.4" r=".8" transform="rotate(-90 150 244.4)"/><circle cx="150" cy="238.6" r=".8" transform="rotate(-90 150 238.6)"/><circle cx="150" cy="232.8" r=".8" transform="rotate(-90 150 232.8)"/><circle cx="150" cy="226.2" r=".8" transform="rotate(-90 150 226.2)"/><circle cx="150" cy="220.4" r=".8" transform="rotate(-90 150 220.4)"/><circle cx="150" cy="214.6" r=".8" transform="rotate(-90 150 214.6)"/><circle cx="150" cy="208.8" r=".8" transform="rotate(-90 150 208.8)"/><circle cx="150" cy="203.1" r=".8" transform="rotate(-90 150 203)"/><circle cx="150" cy="197.3" r=".8" transform="rotate(-90 150 197.3)"/><circle cx="150" cy="191.5" r=".8" transform="rotate(-90 150 191.5)"/><circle cx="150" cy="184.8" r=".8" transform="rotate(-90 150 184.8)"/><circle cx="150" cy="179.1" r=".8" transform="rotate(-90 150 179)"/><circle cx="150" cy="173.3" r=".8" transform="rotate(-90 150 173.3)"/><circle cx="150" cy="167.5" r=".8" transform="rotate(-90 150 167.5)"/><circle cx="150" cy="161.7" r=".8" transform="rotate(-90 150 161.7)"/><circle cx="150" cy="155.9" r=".8" transform="rotate(-90 150 155.9)"/><circle cx="150" cy="150.1" r=".8" transform="rotate(-90 150 150.1)"/><circle cx="150" cy="143.5" r=".8" transform="rotate(-90 150 143.5)"/><circle cx="150" cy="137.7" r=".8" transform="rotate(-90 150 137.7)"/><circle cx="155.8" cy="261.8" r=".8" transform="rotate(-90 155.8 261.8)"/><circle cx="155.8" cy="256" r=".8" transform="rotate(-90 155.8 256)"/><circle cx="155.8" cy="250.2" r=".8" transform="rotate(-90 155.8 250.2)"/><circle cx="155.8" cy="244.4" r=".8" transform="rotate(-90 155.8 244.4)"/><circle cx="155.8" cy="238.6" r=".8" transform="rotate(-90 155.8 238.6)"/><circle cx="155.8" cy="232.8" r=".8" transform="rotate(-90 155.8 232.8)"/><circle cx="155.8" cy="226.2" r=".8" transform="rotate(-90 155.8 226.2)"/><circle cx="155.8" cy="220.4" r=".8" transform="rotate(-90 155.8 220.4)"/><circle cx="155.8" cy="214.6" r=".8" transform="rotate(-90 155.8 214.6)"/><circle cx="155.8" cy="208.8" r=".8" transform="rotate(-90 155.8 208.8)"/><circle cx="155.8" cy="203.1" r=".8" transform="rotate(-90 155.8 203)"/><circle cx="155.8" cy="197.3" r=".8" transform="rotate(-90 155.8 197.3)"/><circle cx="155.8" cy="191.5" r=".8" transform="rotate(-90 155.8 191.5)"/><circle cx="155.8" cy="184.8" r=".8" transform="rotate(-90 155.8 184.8)"/><circle cx="155.8" cy="179.1" r=".8" transform="rotate(-90 155.8 179)"/><circle cx="155.8" cy="173.3" r=".8" transform="rotate(-90 155.8 173.3)"/><circle cx="155.8" cy="167.5" r=".8" transform="rotate(-90 155.8 167.5)"/><circle cx="155.8" cy="161.7" r=".8" transform="rotate(-90 155.8 161.7)"/><circle cx="155.8" cy="155.9" r=".8" transform="rotate(-90 155.8 155.9)"/><circle cx="155.8" cy="150.1" r=".8" transform="rotate(-90 155.8 150.1)"/><circle cx="155.8" cy="143.5" r=".8" transform="rotate(-90 155.8 143.5)"/><circle cx="155.8" cy="137.7" r=".8" transform="rotate(-90 155.8 137.7)"/><circle cx="161.6" cy="261.8" r=".8" transform="rotate(-90 161.6 261.8)"/><circle cx="161.6" cy="256" r=".8" transform="rotate(-90 161.6 256)"/><circle cx="161.6" cy="250.2" r=".8" transform="rotate(-90 161.6 250.2)"/><circle cx="161.6" cy="244.4" r=".8" transform="rotate(-90 161.6 244.4)"/><circle cx="161.6" cy="238.6" r=".8" transform="rotate(-90 161.6 238.6)"/><circle cx="161.6" cy="232.8" r=".8" transform="rotate(-90 161.6 232.8)"/><circle cx="161.6" cy="226.2" r=".8" transform="rotate(-90 161.6 226.2)"/><circle cx="161.6" cy="220.4" r=".8" transform="rotate(-90 161.6 220.4)"/><circle cx="161.6" cy="214.6" r=".8" transform="rotate(-90 161.6 214.6)"/><circle cx="161.6" cy="208.8" r=".8" transform="rotate(-90 161.6 208.8)"/><circle cx="161.6" cy="203.1" r=".8" transform="rotate(-90 161.6 203)"/><circle cx="161.6" cy="197.3" r=".8" transform="rotate(-90 161.6 197.3)"/><circle cx="161.6" cy="191.5" r=".8" transform="rotate(-90 161.6 191.5)"/><circle cx="161.6" cy="184.8" r=".8" transform="rotate(-90 161.6 184.8)"/><circle cx="161.6" cy="179.1" r=".8" transform="rotate(-90 161.6 179)"/><circle cx="161.6" cy="173.3" r=".8" transform="rotate(-90 161.6 173.3)"/><circle cx="161.6" cy="167.5" r=".8" transform="rotate(-90 161.6 167.5)"/><circle cx="161.6" cy="161.7" r=".8" transform="rotate(-90 161.6 161.7)"/><circle cx="161.6" cy="155.9" r=".8" transform="rotate(-90 161.6 155.9)"/><circle cx="161.6" cy="150.1" r=".8" transform="rotate(-90 161.6 150.1)"/><circle cx="161.6" cy="143.5" r=".8" transform="rotate(-90 161.6 143.5)"/><circle cx="161.6" cy="137.7" r=".8" transform="rotate(-90 161.6 137.7)"/><circle cx="168.2" cy="261.8" r=".8" transform="rotate(-90 168.2 261.8)"/><circle cx="168.2" cy="256" r=".8" transform="rotate(-90 168.2 256)"/><circle cx="168.2" cy="250.2" r=".8" transform="rotate(-90 168.2 250.2)"/><circle cx="168.2" cy="244.4" r=".8" transform="rotate(-90 168.2 244.4)"/><circle cx="168.2" cy="238.6" r=".8" transform="rotate(-90 168.2 238.6)"/><circle cx="168.2" cy="232.8" r=".8" transform="rotate(-90 168.2 232.8)"/><circle cx="168.2" cy="226.2" r=".8" transform="rotate(-90 168.2 226.2)"/><circle cx="168.2" cy="220.4" r=".8" transform="rotate(-90 168.2 220.4)"/><circle cx="168.2" cy="214.6" r=".8" transform="rotate(-90 168.2 214.6)"/><circle cx="168.2" cy="208.8" r=".8" transform="rotate(-90 168.2 208.8)"/><circle cx="168.2" cy="203.1" r=".8" transform="rotate(-90 168.2 203)"/><circle cx="168.2" cy="197.3" r=".8" transform="rotate(-90 168.2 197.3)"/><circle cx="168.2" cy="191.5" r=".8" transform="rotate(-90 168.2 191.5)"/><circle cx="168.2" cy="184.8" r=".8" transform="rotate(-90 168.2 184.8)"/><circle cx="168.2" cy="179.1" r=".8" transform="rotate(-90 168.2 179)"/><circle cx="168.2" cy="173.3" r=".8" transform="rotate(-90 168.2 173.3)"/><circle cx="168.2" cy="167.5" r=".8" transform="rotate(-90 168.2 167.5)"/><circle cx="168.2" cy="161.7" r=".8" transform="rotate(-90 168.2 161.7)"/><circle cx="168.2" cy="155.9" r=".8" transform="rotate(-90 168.2 155.9)"/><circle cx="168.2" cy="150.1" r=".8" transform="rotate(-90 168.2 150.1)"/><circle cx="168.2" cy="143.5" r=".8" transform="rotate(-90 168.2 143.5)"/><circle cx="168.2" cy="137.7" r=".8" transform="rotate(-90 168.2 137.7)"/><circle cx="174" cy="261.8" r=".8" transform="rotate(-90 174 261.8)"/><circle cx="174" cy="256" r=".8" transform="rotate(-90 174 256)"/><circle cx="174" cy="250.2" r=".8" transform="rotate(-90 174 250.2)"/><circle cx="174" cy="244.4" r=".8" transform="rotate(-90 174 244.4)"/><circle cx="174" cy="238.6" r=".8" transform="rotate(-90 174 238.6)"/><circle cx="174" cy="232.8" r=".8" transform="rotate(-90 174 232.8)"/><circle cx="174" cy="226.2" r=".8" transform="rotate(-90 174 226.2)"/><circle cx="174" cy="220.4" r=".8" transform="rotate(-90 174 220.4)"/><circle cx="174" cy="214.6" r=".8" transform="rotate(-90 174 214.6)"/><circle cx="174" cy="208.8" r=".8" transform="rotate(-90 174 208.8)"/><circle cx="174" cy="203.1" r=".8" transform="rotate(-90 174 203)"/><circle cx="174" cy="197.3" r=".8" transform="rotate(-90 174 197.3)"/><circle cx="174" cy="191.5" r=".8" transform="rotate(-90 174 191.5)"/><circle cx="174" cy="184.8" r=".8" transform="rotate(-90 174 184.8)"/><circle cx="174" cy="179.1" r=".8" transform="rotate(-90 174 179)"/><circle cx="174" cy="173.3" r=".8" transform="rotate(-90 174 173.3)"/><circle cx="174" cy="167.5" r=".8" transform="rotate(-90 174 167.5)"/><circle cx="174" cy="161.7" r=".8" transform="rotate(-90 174 161.7)"/><circle cx="174" cy="155.9" r=".8" transform="rotate(-90 174 155.9)"/><circle cx="174" cy="150.1" r=".8" transform="rotate(-90 174 150.1)"/><circle cx="174" cy="143.5" r=".8" transform="rotate(-90 174 143.5)"/><circle cx="174" cy="137.7" r=".8" transform="rotate(-90 174 137.7)"/><circle cx="179.8" cy="261.8" r=".8" transform="rotate(-90 179.8 261.8)"/><circle cx="179.8" cy="256" r=".8" transform="rotate(-90 179.8 256)"/><circle cx="179.8" cy="250.2" r=".8" transform="rotate(-90 179.8 250.2)"/><circle cx="179.8" cy="244.4" r=".8" transform="rotate(-90 179.8 244.4)"/><circle cx="179.8" cy="238.6" r=".8" transform="rotate(-90 179.8 238.6)"/><circle cx="179.8" cy="232.8" r=".8" transform="rotate(-90 179.8 232.8)"/><circle cx="179.8" cy="226.2" r=".8" transform="rotate(-90 179.8 226.2)"/><circle cx="179.8" cy="220.4" r=".8" transform="rotate(-90 179.8 220.4)"/><circle cx="179.8" cy="214.6" r=".8" transform="rotate(-90 179.8 214.6)"/><circle cx="179.8" cy="208.8" r=".8" transform="rotate(-90 179.8 208.8)"/><circle cx="179.8" cy="203.1" r=".8" transform="rotate(-90 179.8 203)"/><circle cx="179.8" cy="197.3" r=".8" transform="rotate(-90 179.8 197.3)"/><circle cx="179.8" cy="191.5" r=".8" transform="rotate(-90 179.8 191.5)"/><circle cx="179.8" cy="184.8" r=".8" transform="rotate(-90 179.8 184.8)"/><circle cx="179.8" cy="179.1" r=".8" transform="rotate(-90 179.8 179)"/><circle cx="179.8" cy="173.3" r=".8" transform="rotate(-90 179.8 173.3)"/><circle cx="179.8" cy="167.5" r=".8" transform="rotate(-90 179.8 167.5)"/><circle cx="179.8" cy="161.7" r=".8" transform="rotate(-90 179.8 161.7)"/><circle cx="179.8" cy="155.9" r=".8" transform="rotate(-90 179.8 155.9)"/><circle cx="179.8" cy="150.1" r=".8" transform="rotate(-90 179.8 150.1)"/><circle cx="179.8" cy="143.5" r=".8" transform="rotate(-90 179.8 143.5)"/><circle cx="179.8" cy="137.7" r=".8" transform="rotate(-90 179.8 137.7)"/><circle cx="185.6" cy="261.8" r=".8" transform="rotate(-90 185.6 261.8)"/><circle cx="185.6" cy="256" r=".8" transform="rotate(-90 185.6 256)"/><circle cx="185.6" cy="250.2" r=".8" transform="rotate(-90 185.6 250.2)"/><circle cx="185.6" cy="244.4" r=".8" transform="rotate(-90 185.6 244.4)"/><circle cx="185.6" cy="238.6" r=".8" transform="rotate(-90 185.6 238.6)"/><circle cx="185.6" cy="232.8" r=".8" transform="rotate(-90 185.6 232.8)"/><circle cx="185.6" cy="226.2" r=".8" transform="rotate(-90 185.6 226.2)"/><circle cx="185.6" cy="220.4" r=".8" transform="rotate(-90 185.6 220.4)"/><circle cx="185.6" cy="214.6" r=".8" transform="rotate(-90 185.6 214.6)"/><circle cx="185.6" cy="208.8" r=".8" transform="rotate(-90 185.6 208.8)"/><circle cx="185.6" cy="203.1" r=".8" transform="rotate(-90 185.6 203)"/><circle cx="185.6" cy="197.3" r=".8" transform="rotate(-90 185.6 197.3)"/><circle cx="185.6" cy="191.5" r=".8" transform="rotate(-90 185.6 191.5)"/><circle cx="185.6" cy="184.8" r=".8" transform="rotate(-90 185.6 184.8)"/><circle cx="185.6" cy="179.1" r=".8" transform="rotate(-90 185.6 179)"/><circle cx="185.6" cy="173.3" r=".8" transform="rotate(-90 185.6 173.3)"/><circle cx="185.6" cy="167.5" r=".8" transform="rotate(-90 185.6 167.5)"/><circle cx="185.6" cy="161.7" r=".8" transform="rotate(-90 185.6 161.7)"/><circle cx="185.6" cy="155.9" r=".8" transform="rotate(-90 185.6 155.9)"/><circle cx="185.6" cy="150.1" r=".8" transform="rotate(-90 185.6 150.1)"/><circle cx="185.6" cy="143.5" r=".8" transform="rotate(-90 185.6 143.5)"/><circle cx="185.6" cy="137.7" r=".8" transform="rotate(-90 185.6 137.7)"/><circle cx="191.4" cy="261.8" r=".8" transform="rotate(-90 191.4 261.8)"/><circle cx="191.4" cy="256" r=".8" transform="rotate(-90 191.4 256)"/><circle cx="191.4" cy="250.2" r=".8" transform="rotate(-90 191.4 250.2)"/><circle cx="191.4" cy="244.4" r=".8" transform="rotate(-90 191.4 244.4)"/><circle cx="191.4" cy="238.6" r=".8" transform="rotate(-90 191.4 238.6)"/><circle cx="191.4" cy="232.8" r=".8" transform="rotate(-90 191.4 232.8)"/><circle cx="191.4" cy="226.2" r=".8" transform="rotate(-90 191.4 226.2)"/><circle cx="191.4" cy="220.4" r=".8" transform="rotate(-90 191.4 220.4)"/><circle cx="191.4" cy="214.6" r=".8" transform="rotate(-90 191.4 214.6)"/><circle cx="191.4" cy="208.8" r=".8" transform="rotate(-90 191.4 208.8)"/><circle cx="191.4" cy="203.1" r=".8" transform="rotate(-90 191.4 203)"/><circle cx="191.4" cy="197.3" r=".8" transform="rotate(-90 191.4 197.3)"/><circle cx="191.4" cy="191.5" r=".8" transform="rotate(-90 191.4 191.5)"/><circle cx="191.4" cy="184.8" r=".8" transform="rotate(-90 191.4 184.8)"/><circle cx="191.4" cy="179.1" r=".8" transform="rotate(-90 191.4 179)"/><circle cx="191.4" cy="173.3" r=".8" transform="rotate(-90 191.4 173.3)"/><circle cx="191.4" cy="167.5" r=".8" transform="rotate(-90 191.4 167.5)"/><circle cx="191.4" cy="161.7" r=".8" transform="rotate(-90 191.4 161.7)"/><circle cx="191.4" cy="155.9" r=".8" transform="rotate(-90 191.4 155.9)"/><circle cx="191.4" cy="150.1" r=".8" transform="rotate(-90 191.4 150.1)"/><circle cx="191.4" cy="143.5" r=".8" transform="rotate(-90 191.4 143.5)"/><circle cx="191.4" cy="137.7" r=".8" transform="rotate(-90 191.4 137.7)"/><circle cx="197.2" cy="261.8" r=".8" transform="rotate(-90 197.2 261.8)"/><circle cx="197.2" cy="256" r=".8" transform="rotate(-90 197.2 256)"/><circle cx="197.2" cy="250.2" r=".8" transform="rotate(-90 197.2 250.2)"/><circle cx="197.2" cy="244.4" r=".8" transform="rotate(-90 197.2 244.4)"/><circle cx="197.2" cy="238.6" r=".8" transform="rotate(-90 197.2 238.6)"/><circle cx="197.2" cy="232.8" r=".8" transform="rotate(-90 197.2 232.8)"/><circle cx="197.2" cy="226.2" r=".8" transform="rotate(-90 197.2 226.2)"/><circle cx="197.2" cy="220.4" r=".8" transform="rotate(-90 197.2 220.4)"/><circle cx="197.2" cy="214.6" r=".8" transform="rotate(-90 197.2 214.6)"/><circle cx="197.2" cy="208.8" r=".8" transform="rotate(-90 197.2 208.8)"/><circle cx="197.2" cy="203.1" r=".8" transform="rotate(-90 197.2 203)"/><circle cx="197.2" cy="197.3" r=".8" transform="rotate(-90 197.2 197.3)"/><circle cx="197.2" cy="191.5" r=".8" transform="rotate(-90 197.2 191.5)"/><circle cx="197.2" cy="184.8" r=".8" transform="rotate(-90 197.2 184.8)"/><circle cx="197.2" cy="179.1" r=".8" transform="rotate(-90 197.2 179)"/><circle cx="197.2" cy="173.3" r=".8" transform="rotate(-90 197.2 173.3)"/><circle cx="197.2" cy="167.5" r=".8" transform="rotate(-90 197.2 167.5)"/><circle cx="197.2" cy="161.7" r=".8" transform="rotate(-90 197.2 161.7)"/><circle cx="197.2" cy="155.9" r=".8" transform="rotate(-90 197.2 155.9)"/><circle cx="197.2" cy="150.1" r=".8" transform="rotate(-90 197.2 150.1)"/><circle cx="197.2" cy="143.5" r=".8" transform="rotate(-90 197.2 143.5)"/><circle cx="197.2" cy="137.7" r=".8" transform="rotate(-90 197.2 137.7)"/></g><g opacity=".8"><circle cx="202.6" cy="261.8" r=".8" transform="rotate(-90 202.6 261.8)"/><circle cx="202.6" cy="256" r=".8" transform="rotate(-90 202.6 256)"/><circle cx="202.6" cy="250.2" r=".8" transform="rotate(-90 202.6 250.2)"/><circle cx="202.6" cy="244.4" r=".8" transform="rotate(-90 202.6 244.4)"/><circle cx="202.6" cy="238.6" r=".8" transform="rotate(-90 202.6 238.6)"/><circle cx="202.6" cy="232.8" r=".8" transform="rotate(-90 202.6 232.8)"/><circle cx="202.6" cy="226.2" r=".8" transform="rotate(-90 202.6 226.2)"/><circle cx="202.6" cy="220.4" r=".8" transform="rotate(-90 202.6 220.4)"/><circle cx="202.6" cy="214.6" r=".8" transform="rotate(-90 202.6 214.6)"/><circle cx="202.6" cy="208.8" r=".8" transform="rotate(-90 202.6 208.8)"/><circle cx="202.6" cy="203.1" r=".8" transform="rotate(-90 202.6 203)"/><circle cx="202.6" cy="197.3" r=".8" transform="rotate(-90 202.6 197.3)"/><circle cx="202.6" cy="191.5" r=".8" transform="rotate(-90 202.6 191.5)"/><circle cx="202.6" cy="184.8" r=".8" transform="rotate(-90 202.6 184.8)"/><circle cx="202.6" cy="179.1" r=".8" transform="rotate(-90 202.6 179)"/><circle cx="202.6" cy="173.3" r=".8" transform="rotate(-90 202.6 173.3)"/><circle cx="202.6" cy="167.5" r=".8" transform="rotate(-90 202.6 167.5)"/><circle cx="202.6" cy="161.7" r=".8" transform="rotate(-90 202.6 161.7)"/><circle cx="202.6" cy="155.9" r=".8" transform="rotate(-90 202.6 155.9)"/><circle cx="202.6" cy="150.1" r=".8" transform="rotate(-90 202.6 150)"/><circle cx="202.6" cy="143.5" r=".8" transform="rotate(-90 202.6 143.5)"/><circle cx="202.6" cy="137.7" r=".8" transform="rotate(-90 202.6 137.7)"/><circle cx="208.4" cy="261.8" r=".8" transform="rotate(-90 208.4 261.8)"/><circle cx="208.4" cy="256" r=".8" transform="rotate(-90 208.4 256)"/><circle cx="208.4" cy="250.2" r=".8" transform="rotate(-90 208.4 250.2)"/><circle cx="208.4" cy="244.4" r=".8" transform="rotate(-90 208.4 244.4)"/><circle cx="208.4" cy="238.6" r=".8" transform="rotate(-90 208.4 238.6)"/><circle cx="208.4" cy="232.8" r=".8" transform="rotate(-90 208.4 232.8)"/><circle cx="208.4" cy="226.2" r=".8" transform="rotate(-90 208.4 226.2)"/><circle cx="208.4" cy="220.4" r=".8" transform="rotate(-90 208.4 220.4)"/><circle cx="208.4" cy="214.6" r=".8" transform="rotate(-90 208.4 214.6)"/><circle cx="208.4" cy="208.8" r=".8" transform="rotate(-90 208.4 208.8)"/><circle cx="208.4" cy="203.1" r=".8" transform="rotate(-90 208.4 203)"/><circle cx="208.4" cy="197.3" r=".8" transform="rotate(-90 208.4 197.3)"/><circle cx="208.4" cy="191.5" r=".8" transform="rotate(-90 208.4 191.5)"/><circle cx="208.4" cy="184.8" r=".8" transform="rotate(-90 208.4 184.8)"/><circle cx="208.4" cy="179.1" r=".8" transform="rotate(-90 208.4 179)"/><circle cx="208.4" cy="173.3" r=".8" transform="rotate(-90 208.4 173.3)"/><circle cx="208.4" cy="167.5" r=".8" transform="rotate(-90 208.4 167.5)"/><circle cx="208.4" cy="161.7" r=".8" transform="rotate(-90 208.4 161.7)"/><circle cx="208.4" cy="155.9" r=".8" transform="rotate(-90 208.4 155.9)"/><circle cx="208.4" cy="150.1" r=".8" transform="rotate(-90 208.4 150)"/><circle cx="208.4" cy="143.5" r=".8" transform="rotate(-90 208.4 143.5)"/><circle cx="208.4" cy="137.7" r=".8" transform="rotate(-90 208.4 137.7)"/><circle cx="214.2" cy="261.8" r=".8" transform="rotate(-90 214.2 261.8)"/><circle cx="214.2" cy="256" r=".8" transform="rotate(-90 214.2 256)"/><circle cx="214.2" cy="250.2" r=".8" transform="rotate(-90 214.2 250.2)"/><circle cx="214.2" cy="244.4" r=".8" transform="rotate(-90 214.2 244.4)"/><circle cx="214.2" cy="238.6" r=".8" transform="rotate(-90 214.2 238.6)"/><circle cx="214.2" cy="232.8" r=".8" transform="rotate(-90 214.2 232.8)"/><circle cx="214.2" cy="226.2" r=".8" transform="rotate(-90 214.2 226.2)"/><circle cx="214.2" cy="220.4" r=".8" transform="rotate(-90 214.2 220.4)"/><circle cx="214.2" cy="214.6" r=".8" transform="rotate(-90 214.2 214.6)"/><circle cx="214.2" cy="208.8" r=".8" transform="rotate(-90 214.2 208.8)"/><circle cx="214.2" cy="203.1" r=".8" transform="rotate(-90 214.2 203)"/><circle cx="214.2" cy="197.3" r=".8" transform="rotate(-90 214.2 197.3)"/><circle cx="214.2" cy="191.5" r=".8" transform="rotate(-90 214.2 191.5)"/><circle cx="214.2" cy="184.8" r=".8" transform="rotate(-90 214.2 184.8)"/><circle cx="214.2" cy="179.1" r=".8" transform="rotate(-90 214.2 179)"/><circle cx="214.2" cy="173.3" r=".8" transform="rotate(-90 214.2 173.3)"/><circle cx="214.2" cy="167.5" r=".8" transform="rotate(-90 214.2 167.5)"/><circle cx="214.2" cy="161.7" r=".8" transform="rotate(-90 214.2 161.7)"/><circle cx="214.2" cy="155.9" r=".8" transform="rotate(-90 214.2 155.9)"/><circle cx="214.2" cy="150.1" r=".8" transform="rotate(-90 214.2 150)"/><circle cx="214.2" cy="143.5" r=".8" transform="rotate(-90 214.2 143.5)"/><circle cx="214.2" cy="137.7" r=".8" transform="rotate(-90 214.2 137.7)"/><circle cx="220" cy="261.8" r=".8" transform="rotate(-90 220 261.8)"/><circle cx="220" cy="256" r=".8" transform="rotate(-90 220 256)"/><circle cx="220" cy="250.2" r=".8" transform="rotate(-90 220 250.2)"/><circle cx="220" cy="244.4" r=".8" transform="rotate(-90 220 244.4)"/><circle cx="220" cy="238.6" r=".8" transform="rotate(-90 220 238.6)"/><circle cx="220" cy="232.8" r=".8" transform="rotate(-90 220 232.8)"/><circle cx="220" cy="226.2" r=".8" transform="rotate(-90 220 226.2)"/><circle cx="220" cy="220.4" r=".8" transform="rotate(-90 220 220.4)"/><circle cx="220" cy="214.6" r=".8" transform="rotate(-90 220 214.6)"/><circle cx="220" cy="208.8" r=".8" transform="rotate(-90 220 208.8)"/><circle cx="220" cy="203.1" r=".8" transform="rotate(-90 220 203)"/><circle cx="220" cy="197.3" r=".8" transform="rotate(-90 220 197.3)"/><circle cx="220" cy="191.5" r=".8" transform="rotate(-90 220 191.5)"/><circle cx="220" cy="184.8" r=".8" transform="rotate(-90 220 184.8)"/><circle cx="220" cy="179.1" r=".8" transform="rotate(-90 220 179)"/><circle cx="220" cy="173.3" r=".8" transform="rotate(-90 220 173.3)"/><circle cx="220" cy="167.5" r=".8" transform="rotate(-90 220 167.5)"/><circle cx="220" cy="161.7" r=".8" transform="rotate(-90 220 161.7)"/><circle cx="220" cy="155.9" r=".8" transform="rotate(-90 220 155.9)"/><circle cx="220" cy="150.1" r=".8" transform="rotate(-90 220 150)"/><circle cx="220" cy="143.5" r=".8" transform="rotate(-90 220 143.5)"/><circle cx="220" cy="137.7" r=".8" transform="rotate(-90 220 137.7)"/><circle cx="226.6" cy="261.8" r=".8" transform="rotate(-90 226.6 261.8)"/><circle cx="226.6" cy="256" r=".8" transform="rotate(-90 226.6 256)"/><circle cx="226.6" cy="250.2" r=".8" transform="rotate(-90 226.6 250.2)"/><circle cx="226.6" cy="244.4" r=".8" transform="rotate(-90 226.6 244.4)"/><circle cx="226.6" cy="238.6" r=".8" transform="rotate(-90 226.6 238.6)"/><circle cx="226.6" cy="232.8" r=".8" transform="rotate(-90 226.6 232.8)"/><circle cx="226.6" cy="226.2" r=".8" transform="rotate(-90 226.6 226.2)"/><circle cx="226.6" cy="220.4" r=".8" transform="rotate(-90 226.6 220.4)"/><circle cx="226.6" cy="214.6" r=".8" transform="rotate(-90 226.6 214.6)"/><circle cx="226.6" cy="208.8" r=".8" transform="rotate(-90 226.6 208.8)"/><circle cx="226.6" cy="203.1" r=".8" transform="rotate(-90 226.6 203)"/><circle cx="226.6" cy="197.3" r=".8" transform="rotate(-90 226.6 197.3)"/><circle cx="226.6" cy="191.5" r=".8" transform="rotate(-90 226.6 191.5)"/><circle cx="226.6" cy="184.8" r=".8" transform="rotate(-90 226.6 184.8)"/><circle cx="226.6" cy="179.1" r=".8" transform="rotate(-90 226.6 179)"/><circle cx="226.6" cy="173.3" r=".8" transform="rotate(-90 226.6 173.3)"/><circle cx="226.6" cy="167.5" r=".8" transform="rotate(-90 226.6 167.5)"/><circle cx="226.6" cy="161.7" r=".8" transform="rotate(-90 226.6 161.7)"/><circle cx="226.6" cy="155.9" r=".8" transform="rotate(-90 226.6 155.9)"/><circle cx="226.6" cy="150.1" r=".8" transform="rotate(-90 226.6 150)"/><circle cx="226.6" cy="143.5" r=".8" transform="rotate(-90 226.6 143.5)"/><circle cx="226.6" cy="137.7" r=".8" transform="rotate(-90 226.6 137.7)"/><circle cx="232.4" cy="261.8" r=".8" transform="rotate(-90 232.4 261.8)"/><circle cx="232.4" cy="256" r=".8" transform="rotate(-90 232.4 256)"/><circle cx="232.4" cy="250.2" r=".8" transform="rotate(-90 232.4 250.2)"/><circle cx="232.4" cy="244.4" r=".8" transform="rotate(-90 232.4 244.4)"/><circle cx="232.4" cy="238.6" r=".8" transform="rotate(-90 232.4 238.6)"/><circle cx="232.4" cy="232.8" r=".8" transform="rotate(-90 232.4 232.8)"/><circle cx="232.4" cy="226.2" r=".8" transform="rotate(-90 232.4 226.2)"/><circle cx="232.4" cy="220.4" r=".8" transform="rotate(-90 232.4 220.4)"/><circle cx="232.4" cy="214.6" r=".8" transform="rotate(-90 232.4 214.6)"/><circle cx="232.4" cy="208.8" r=".8" transform="rotate(-90 232.4 208.8)"/><circle cx="232.4" cy="203.1" r=".8" transform="rotate(-90 232.4 203)"/><circle cx="232.4" cy="197.3" r=".8" transform="rotate(-90 232.4 197.3)"/><circle cx="232.4" cy="191.5" r=".8" transform="rotate(-90 232.4 191.5)"/><circle cx="232.4" cy="184.8" r=".8" transform="rotate(-90 232.4 184.8)"/><circle cx="232.4" cy="179.1" r=".8" transform="rotate(-90 232.4 179)"/><circle cx="232.4" cy="173.3" r=".8" transform="rotate(-90 232.4 173.3)"/><circle cx="232.4" cy="167.5" r=".8" transform="rotate(-90 232.4 167.5)"/><circle cx="232.4" cy="161.7" r=".8" transform="rotate(-90 232.4 161.7)"/><circle cx="232.4" cy="155.9" r=".8" transform="rotate(-90 232.4 155.9)"/><circle cx="232.4" cy="150.1" r=".8" transform="rotate(-90 232.4 150)"/><circle cx="232.4" cy="143.5" r=".8" transform="rotate(-90 232.4 143.5)"/><circle cx="232.4" cy="137.7" r=".8" transform="rotate(-90 232.4 137.7)"/><circle cx="238.2" cy="261.8" r=".8" transform="rotate(-90 238.2 261.8)"/><circle cx="238.2" cy="256" r=".8" transform="rotate(-90 238.2 256)"/><circle cx="238.2" cy="250.2" r=".8" transform="rotate(-90 238.2 250.2)"/><circle cx="238.2" cy="244.4" r=".8" transform="rotate(-90 238.2 244.4)"/><circle cx="238.2" cy="238.6" r=".8" transform="rotate(-90 238.2 238.6)"/><circle cx="238.2" cy="232.8" r=".8" transform="rotate(-90 238.2 232.8)"/><circle cx="238.2" cy="226.2" r=".8" transform="rotate(-90 238.2 226.2)"/><circle cx="238.2" cy="220.4" r=".8" transform="rotate(-90 238.2 220.4)"/><circle cx="238.2" cy="214.6" r=".8" transform="rotate(-90 238.2 214.6)"/><circle cx="238.2" cy="208.8" r=".8" transform="rotate(-90 238.2 208.8)"/><circle cx="238.2" cy="203.1" r=".8" transform="rotate(-90 238.2 203)"/><circle cx="238.2" cy="197.3" r=".8" transform="rotate(-90 238.2 197.3)"/><circle cx="238.2" cy="191.5" r=".8" transform="rotate(-90 238.2 191.5)"/><circle cx="238.2" cy="184.8" r=".8" transform="rotate(-90 238.2 184.8)"/><circle cx="238.2" cy="179.1" r=".8" transform="rotate(-90 238.2 179)"/><circle cx="238.2" cy="173.3" r=".8" transform="rotate(-90 238.2 173.3)"/><circle cx="238.2" cy="167.5" r=".8" transform="rotate(-90 238.2 167.5)"/><circle cx="238.2" cy="161.7" r=".8" transform="rotate(-90 238.2 161.7)"/><circle cx="238.2" cy="155.9" r=".8" transform="rotate(-90 238.2 155.9)"/><circle cx="238.2" cy="150.1" r=".8" transform="rotate(-90 238.2 150)"/><circle cx="238.2" cy="143.5" r=".8" transform="rotate(-90 238.2 143.5)"/><circle cx="238.2" cy="137.7" r=".8" transform="rotate(-90 238.2 137.7)"/><circle cx="244" cy="261.8" r=".8" transform="rotate(-90 244 261.8)"/><circle cx="244" cy="256" r=".8" transform="rotate(-90 244 256)"/><circle cx="244" cy="250.2" r=".8" transform="rotate(-90 244 250.2)"/><circle cx="244" cy="244.4" r=".8" transform="rotate(-90 244 244.4)"/><circle cx="244" cy="238.6" r=".8" transform="rotate(-90 244 238.6)"/><circle cx="244" cy="232.8" r=".8" transform="rotate(-90 244 232.8)"/><circle cx="244" cy="226.2" r=".8" transform="rotate(-90 244 226.2)"/><circle cx="244" cy="220.4" r=".8" transform="rotate(-90 244 220.4)"/><circle cx="244" cy="214.6" r=".8" transform="rotate(-90 244 214.6)"/><circle cx="244" cy="208.8" r=".8" transform="rotate(-90 244 208.8)"/><circle cx="244" cy="203.1" r=".8" transform="rotate(-90 244 203)"/><circle cx="244" cy="197.3" r=".8" transform="rotate(-90 244 197.3)"/><circle cx="244" cy="191.5" r=".8" transform="rotate(-90 244 191.5)"/><circle cx="244" cy="184.8" r=".8" transform="rotate(-90 244 184.8)"/><circle cx="244" cy="179.1" r=".8" transform="rotate(-90 244 179)"/><circle cx="244" cy="173.3" r=".8" transform="rotate(-90 244 173.3)"/><circle cx="244" cy="167.5" r=".8" transform="rotate(-90 244 167.5)"/><circle cx="244" cy="161.7" r=".8" transform="rotate(-90 244 161.7)"/><circle cx="244" cy="155.9" r=".8" transform="rotate(-90 244 155.9)"/><circle cx="244" cy="150.1" r=".8" transform="rotate(-90 244 150)"/><circle cx="244" cy="143.5" r=".8" transform="rotate(-90 244 143.5)"/><circle cx="244" cy="137.7" r=".8" transform="rotate(-90 244 137.7)"/><circle cx="249.8" cy="261.8" r=".8" transform="rotate(-90 249.8 261.8)"/><circle cx="249.8" cy="256" r=".8" transform="rotate(-90 249.8 256)"/><circle cx="249.8" cy="250.2" r=".8" transform="rotate(-90 249.8 250.2)"/><circle cx="249.8" cy="244.4" r=".8" transform="rotate(-90 249.8 244.4)"/><circle cx="249.8" cy="238.6" r=".8" transform="rotate(-90 249.8 238.6)"/><circle cx="249.8" cy="232.8" r=".8" transform="rotate(-90 249.8 232.8)"/><circle cx="249.8" cy="226.2" r=".8" transform="rotate(-90 249.8 226.2)"/><circle cx="249.8" cy="220.4" r=".8" transform="rotate(-90 249.8 220.4)"/><circle cx="249.8" cy="214.6" r=".8" transform="rotate(-90 249.8 214.6)"/><circle cx="249.8" cy="208.8" r=".8" transform="rotate(-90 249.8 208.8)"/><circle cx="249.8" cy="203.1" r=".8" transform="rotate(-90 249.8 203)"/><circle cx="249.8" cy="197.3" r=".8" transform="rotate(-90 249.8 197.3)"/><circle cx="249.8" cy="191.5" r=".8" transform="rotate(-90 249.8 191.5)"/><circle cx="249.8" cy="184.8" r=".8" transform="rotate(-90 249.8 184.8)"/><circle cx="249.8" cy="179.1" r=".8" transform="rotate(-90 249.8 179)"/><circle cx="249.8" cy="173.3" r=".8" transform="rotate(-90 249.8 173.3)"/><circle cx="249.8" cy="167.5" r=".8" transform="rotate(-90 249.8 167.5)"/><circle cx="249.8" cy="161.7" r=".8" transform="rotate(-90 249.8 161.7)"/><circle cx="249.8" cy="155.9" r=".8" transform="rotate(-90 249.8 155.9)"/><circle cx="249.8" cy="150.1" r=".8" transform="rotate(-90 249.8 150)"/><circle cx="249.8" cy="143.5" r=".8" transform="rotate(-90 249.8 143.5)"/><circle cx="249.8" cy="137.7" r=".8" transform="rotate(-90 249.8 137.7)"/><circle cx="255.6" cy="261.8" r=".8" transform="rotate(-90 255.6 261.8)"/><circle cx="255.6" cy="256" r=".8" transform="rotate(-90 255.6 256)"/><circle cx="255.6" cy="250.2" r=".8" transform="rotate(-90 255.6 250.2)"/><circle cx="255.6" cy="244.4" r=".8" transform="rotate(-90 255.6 244.4)"/><circle cx="255.6" cy="238.6" r=".8" transform="rotate(-90 255.6 238.6)"/><circle cx="255.6" cy="232.8" r=".8" transform="rotate(-90 255.6 232.8)"/><circle cx="255.6" cy="226.2" r=".8" transform="rotate(-90 255.6 226.2)"/><circle cx="255.6" cy="220.4" r=".8" transform="rotate(-90 255.6 220.4)"/><circle cx="255.6" cy="214.6" r=".8" transform="rotate(-90 255.6 214.6)"/><circle cx="255.6" cy="208.8" r=".8" transform="rotate(-90 255.6 208.8)"/><circle cx="255.6" cy="203.1" r=".8" transform="rotate(-90 255.6 203)"/><circle cx="255.6" cy="197.3" r=".8" transform="rotate(-90 255.6 197.3)"/><circle cx="255.6" cy="191.5" r=".8" transform="rotate(-90 255.6 191.5)"/><circle cx="255.6" cy="184.8" r=".8" transform="rotate(-90 255.6 184.8)"/><circle cx="255.6" cy="179.1" r=".8" transform="rotate(-90 255.6 179)"/><circle cx="255.6" cy="173.3" r=".8" transform="rotate(-90 255.6 173.3)"/><circle cx="255.6" cy="167.5" r=".8" transform="rotate(-90 255.6 167.5)"/><circle cx="255.6" cy="161.7" r=".8" transform="rotate(-90 255.6 161.7)"/><circle cx="255.6" cy="155.9" r=".8" transform="rotate(-90 255.6 155.9)"/><circle cx="255.6" cy="150.1" r=".8" transform="rotate(-90 255.6 150)"/><circle cx="255.6" cy="143.5" r=".8" transform="rotate(-90 255.6 143.5)"/><circle cx="255.6" cy="137.7" r=".8" transform="rotate(-90 255.6 137.7)"/><circle cx="261.4" cy="261.8" r=".8" transform="rotate(-90 261.4 261.8)"/><circle cx="261.4" cy="256" r=".8" transform="rotate(-90 261.4 256)"/><circle cx="261.4" cy="250.2" r=".8" transform="rotate(-90 261.4 250.2)"/><circle cx="261.4" cy="244.4" r=".8" transform="rotate(-90 261.4 244.4)"/><circle cx="261.4" cy="238.6" r=".8" transform="rotate(-90 261.4 238.6)"/><circle cx="261.4" cy="232.8" r=".8" transform="rotate(-90 261.4 232.8)"/><circle cx="261.4" cy="226.2" r=".8" transform="rotate(-90 261.4 226.2)"/><circle cx="261.4" cy="220.4" r=".8" transform="rotate(-90 261.4 220.4)"/><circle cx="261.4" cy="214.6" r=".8" transform="rotate(-90 261.4 214.6)"/><circle cx="261.4" cy="208.8" r=".8" transform="rotate(-90 261.4 208.8)"/><circle cx="261.4" cy="203.1" r=".8" transform="rotate(-90 261.4 203)"/><circle cx="261.4" cy="197.3" r=".8" transform="rotate(-90 261.4 197.3)"/><circle cx="261.4" cy="191.5" r=".8" transform="rotate(-90 261.4 191.5)"/><circle cx="261.4" cy="184.8" r=".8" transform="rotate(-90 261.4 184.8)"/><circle cx="261.4" cy="179.1" r=".8" transform="rotate(-90 261.4 179)"/><circle cx="261.4" cy="173.3" r=".8" transform="rotate(-90 261.4 173.3)"/><circle cx="261.4" cy="167.5" r=".8" transform="rotate(-90 261.4 167.5)"/><circle cx="261.4" cy="161.7" r=".8" transform="rotate(-90 261.4 161.7)"/><circle cx="261.4" cy="155.9" r=".8" transform="rotate(-90 261.4 155.9)"/><circle cx="261.4" cy="150.1" r=".8" transform="rotate(-90 261.4 150)"/><circle cx="261.4" cy="143.5" r=".8" transform="rotate(-90 261.4 143.5)"/><circle cx="261.4" cy="137.7" r=".8" transform="rotate(-90 261.4 137.7)"/><circle cx="268" cy="261.8" r=".8" transform="rotate(-90 268 261.8)"/><circle cx="268" cy="256" r=".8" transform="rotate(-90 268 256)"/><circle cx="268" cy="250.2" r=".8" transform="rotate(-90 268 250.2)"/><circle cx="268" cy="244.4" r=".8" transform="rotate(-90 268 244.4)"/><circle cx="268" cy="238.6" r=".8" transform="rotate(-90 268 238.6)"/><circle cx="268" cy="232.8" r=".8" transform="rotate(-90 268 232.8)"/><circle cx="268" cy="226.2" r=".8" transform="rotate(-90 268 226.2)"/><circle cx="268" cy="220.4" r=".8" transform="rotate(-90 268 220.4)"/><circle cx="268" cy="214.6" r=".8" transform="rotate(-90 268 214.6)"/><circle cx="268" cy="208.8" r=".8" transform="rotate(-90 268 208.8)"/><circle cx="268" cy="203.1" r=".8" transform="rotate(-90 268 203)"/><circle cx="268" cy="197.3" r=".8" transform="rotate(-90 268 197.3)"/><circle cx="268" cy="191.5" r=".8" transform="rotate(-90 268 191.5)"/><circle cx="268" cy="184.8" r=".8" transform="rotate(-90 268 184.8)"/><circle cx="268" cy="179.1" r=".8" transform="rotate(-90 268 179)"/><circle cx="268" cy="173.3" r=".8" transform="rotate(-90 268 173.3)"/><circle cx="268" cy="167.5" r=".8" transform="rotate(-90 268 167.5)"/><circle cx="268" cy="161.7" r=".8" transform="rotate(-90 268 161.7)"/><circle cx="268" cy="155.9" r=".8" transform="rotate(-90 268 155.9)"/><circle cx="268" cy="150.1" r=".8" transform="rotate(-90 268 150)"/><circle cx="268" cy="143.5" r=".8" transform="rotate(-90 268 143.5)"/><circle cx="268" cy="137.7" r=".8" transform="rotate(-90 268 137.7)"/><circle cx="273.8" cy="261.8" r=".8" transform="rotate(-90 273.8 261.8)"/><circle cx="273.8" cy="256" r=".8" transform="rotate(-90 273.8 256)"/><circle cx="273.8" cy="250.2" r=".8" transform="rotate(-90 273.8 250.2)"/><circle cx="273.8" cy="244.4" r=".8" transform="rotate(-90 273.8 244.4)"/><circle cx="273.8" cy="238.6" r=".8" transform="rotate(-90 273.8 238.6)"/><circle cx="273.8" cy="232.8" r=".8" transform="rotate(-90 273.8 232.8)"/><circle cx="273.8" cy="226.2" r=".8" transform="rotate(-90 273.8 226.2)"/><circle cx="273.8" cy="220.4" r=".8" transform="rotate(-90 273.8 220.4)"/><circle cx="273.8" cy="214.6" r=".8" transform="rotate(-90 273.8 214.6)"/><circle cx="273.8" cy="208.8" r=".8" transform="rotate(-90 273.8 208.8)"/><circle cx="273.8" cy="203.1" r=".8" transform="rotate(-90 273.8 203)"/><circle cx="273.8" cy="197.3" r=".8" transform="rotate(-90 273.8 197.3)"/><circle cx="273.8" cy="191.5" r=".8" transform="rotate(-90 273.8 191.5)"/><circle cx="273.8" cy="184.8" r=".8" transform="rotate(-90 273.8 184.8)"/><circle cx="273.8" cy="179.1" r=".8" transform="rotate(-90 273.8 179)"/><circle cx="273.8" cy="173.3" r=".8" transform="rotate(-90 273.8 173.3)"/><circle cx="273.8" cy="167.5" r=".8" transform="rotate(-90 273.8 167.5)"/><circle cx="273.8" cy="161.7" r=".8" transform="rotate(-90 273.8 161.7)"/><circle cx="273.8" cy="155.9" r=".8" transform="rotate(-90 273.8 155.9)"/><circle cx="273.8" cy="150.1" r=".8" transform="rotate(-90 273.8 150)"/><circle cx="273.8" cy="143.5" r=".8" transform="rotate(-90 273.8 143.5)"/><circle cx="273.8" cy="137.7" r=".8" transform="rotate(-90 273.8 137.7)"/><circle cx="279.6" cy="261.8" r=".8" transform="rotate(-90 279.6 261.8)"/><circle cx="279.6" cy="256" r=".8" transform="rotate(-90 279.6 256)"/><circle cx="279.6" cy="250.2" r=".8" transform="rotate(-90 279.6 250.2)"/><circle cx="279.6" cy="244.4" r=".8" transform="rotate(-90 279.6 244.4)"/><circle cx="279.6" cy="238.6" r=".8" transform="rotate(-90 279.6 238.6)"/><circle cx="279.6" cy="232.8" r=".8" transform="rotate(-90 279.6 232.8)"/><circle cx="279.6" cy="226.2" r=".8" transform="rotate(-90 279.6 226.2)"/><circle cx="279.6" cy="220.4" r=".8" transform="rotate(-90 279.6 220.4)"/><circle cx="279.6" cy="214.6" r=".8" transform="rotate(-90 279.6 214.6)"/><circle cx="279.6" cy="208.8" r=".8" transform="rotate(-90 279.6 208.8)"/><circle cx="279.6" cy="203.1" r=".8" transform="rotate(-90 279.6 203)"/><circle cx="279.6" cy="197.3" r=".8" transform="rotate(-90 279.6 197.3)"/><circle cx="279.6" cy="191.5" r=".8" transform="rotate(-90 279.6 191.5)"/><circle cx="279.6" cy="184.8" r=".8" transform="rotate(-90 279.6 184.8)"/><circle cx="279.6" cy="179.1" r=".8" transform="rotate(-90 279.6 179)"/><circle cx="279.6" cy="173.3" r=".8" transform="rotate(-90 279.6 173.3)"/><circle cx="279.6" cy="167.5" r=".8" transform="rotate(-90 279.6 167.5)"/><circle cx="279.6" cy="161.7" r=".8" transform="rotate(-90 279.6 161.7)"/><circle cx="279.6" cy="155.9" r=".8" transform="rotate(-90 279.6 155.9)"/><circle cx="279.6" cy="150.1" r=".8" transform="rotate(-90 279.6 150)"/><circle cx="279.6" cy="143.5" r=".8" transform="rotate(-90 279.6 143.5)"/><circle cx="279.6" cy="137.7" r=".8" transform="rotate(-90 279.6 137.7)"/><circle cx="285.4" cy="261.8" r=".8" transform="rotate(-90 285.4 261.8)"/><circle cx="285.4" cy="256" r=".8" transform="rotate(-90 285.4 256)"/><circle cx="285.4" cy="250.2" r=".8" transform="rotate(-90 285.4 250.2)"/><circle cx="285.4" cy="244.4" r=".8" transform="rotate(-90 285.4 244.4)"/><circle cx="285.4" cy="238.6" r=".8" transform="rotate(-90 285.4 238.6)"/><circle cx="285.4" cy="232.8" r=".8" transform="rotate(-90 285.4 232.8)"/><circle cx="285.4" cy="226.2" r=".8" transform="rotate(-90 285.4 226.2)"/><circle cx="285.4" cy="220.4" r=".8" transform="rotate(-90 285.4 220.4)"/><circle cx="285.4" cy="214.6" r=".8" transform="rotate(-90 285.4 214.6)"/><circle cx="285.4" cy="208.8" r=".8" transform="rotate(-90 285.4 208.8)"/><circle cx="285.4" cy="203.1" r=".8" transform="rotate(-90 285.4 203)"/><circle cx="285.4" cy="197.3" r=".8" transform="rotate(-90 285.4 197.3)"/><circle cx="285.4" cy="191.5" r=".8" transform="rotate(-90 285.4 191.5)"/><circle cx="285.4" cy="184.8" r=".8" transform="rotate(-90 285.4 184.8)"/><circle cx="285.4" cy="179.1" r=".8" transform="rotate(-90 285.4 179)"/><circle cx="285.4" cy="173.3" r=".8" transform="rotate(-90 285.4 173.3)"/><circle cx="285.4" cy="167.5" r=".8" transform="rotate(-90 285.4 167.5)"/><circle cx="285.4" cy="161.7" r=".8" transform="rotate(-90 285.4 161.7)"/><circle cx="285.4" cy="155.9" r=".8" transform="rotate(-90 285.4 155.9)"/><circle cx="285.4" cy="150.1" r=".8" transform="rotate(-90 285.4 150)"/><circle cx="285.4" cy="143.5" r=".8" transform="rotate(-90 285.4 143.5)"/><circle cx="285.4" cy="137.7" r=".8" transform="rotate(-90 285.4 137.7)"/><circle cx="291.2" cy="261.8" r=".8" transform="rotate(-90 291.2 261.8)"/><circle cx="291.2" cy="256" r=".8" transform="rotate(-90 291.2 256)"/><circle cx="291.2" cy="250.2" r=".8" transform="rotate(-90 291.2 250.2)"/><circle cx="291.2" cy="244.4" r=".8" transform="rotate(-90 291.2 244.4)"/><circle cx="291.2" cy="238.6" r=".8" transform="rotate(-90 291.2 238.6)"/><circle cx="291.2" cy="232.8" r=".8" transform="rotate(-90 291.2 232.8)"/><circle cx="291.2" cy="226.2" r=".8" transform="rotate(-90 291.2 226.2)"/><circle cx="291.2" cy="220.4" r=".8" transform="rotate(-90 291.2 220.4)"/><circle cx="291.2" cy="214.6" r=".8" transform="rotate(-90 291.2 214.6)"/><circle cx="291.2" cy="208.8" r=".8" transform="rotate(-90 291.2 208.8)"/><circle cx="291.2" cy="203.1" r=".8" transform="rotate(-90 291.2 203)"/><circle cx="291.2" cy="197.3" r=".8" transform="rotate(-90 291.2 197.3)"/><circle cx="291.2" cy="191.5" r=".8" transform="rotate(-90 291.2 191.5)"/><circle cx="291.2" cy="184.8" r=".8" transform="rotate(-90 291.2 184.8)"/><circle cx="291.2" cy="179.1" r=".8" transform="rotate(-90 291.2 179)"/><circle cx="291.2" cy="173.3" r=".8" transform="rotate(-90 291.2 173.3)"/><circle cx="291.2" cy="167.5" r=".8" transform="rotate(-90 291.2 167.5)"/><circle cx="291.2" cy="161.7" r=".8" transform="rotate(-90 291.2 161.7)"/><circle cx="291.2" cy="155.9" r=".8" transform="rotate(-90 291.2 155.9)"/><circle cx="291.2" cy="150.1" r=".8" transform="rotate(-90 291.2 150)"/><circle cx="291.2" cy="143.5" r=".8" transform="rotate(-90 291.2 143.5)"/><circle cx="291.2" cy="137.7" r=".8" transform="rotate(-90 291.2 137.7)"/><circle cx="297" cy="261.8" r=".8" transform="rotate(-90 297 261.8)"/><circle cx="297" cy="256" r=".8" transform="rotate(-90 297 256)"/><circle cx="297" cy="250.2" r=".8" transform="rotate(-90 297 250.2)"/><circle cx="297" cy="244.4" r=".8" transform="rotate(-90 297 244.4)"/><circle cx="297" cy="238.6" r=".8" transform="rotate(-90 297 238.6)"/><circle cx="297" cy="232.8" r=".8" transform="rotate(-90 297 232.8)"/><circle cx="297" cy="226.2" r=".8" transform="rotate(-90 297 226.2)"/><circle cx="297" cy="220.4" r=".8" transform="rotate(-90 297 220.4)"/><circle cx="297" cy="214.6" r=".8" transform="rotate(-90 297 214.6)"/><circle cx="297" cy="208.8" r=".8" transform="rotate(-90 297 208.8)"/><circle cx="297" cy="203.1" r=".8" transform="rotate(-90 297 203)"/><circle cx="297" cy="197.3" r=".8" transform="rotate(-90 297 197.3)"/><circle cx="297" cy="191.5" r=".8" transform="rotate(-90 297 191.5)"/><circle cx="297" cy="184.8" r=".8" transform="rotate(-90 297 184.8)"/><circle cx="297" cy="179.1" r=".8" transform="rotate(-90 297 179)"/><circle cx="297" cy="173.3" r=".8" transform="rotate(-90 297 173.3)"/><circle cx="297" cy="167.5" r=".8" transform="rotate(-90 297 167.5)"/><circle cx="297" cy="161.7" r=".8" transform="rotate(-90 297 161.7)"/><circle cx="297" cy="155.9" r=".8" transform="rotate(-90 297 155.9)"/><circle cx="297" cy="150.1" r=".8" transform="rotate(-90 297 150)"/><circle cx="297" cy="143.5" r=".8" transform="rotate(-90 297 143.5)"/><circle cx="297" cy="137.7" r=".8" transform="rotate(-90 297 137.7)"/><circle cx="303.6" cy="261.8" r=".8" transform="rotate(-90 303.6 261.8)"/><circle cx="303.6" cy="256" r=".8" transform="rotate(-90 303.6 256)"/><circle cx="303.6" cy="250.2" r=".8" transform="rotate(-90 303.6 250.2)"/><circle cx="303.6" cy="244.4" r=".8" transform="rotate(-90 303.6 244.4)"/><circle cx="303.6" cy="238.6" r=".8" transform="rotate(-90 303.6 238.6)"/><circle cx="303.6" cy="232.8" r=".8" transform="rotate(-90 303.6 232.8)"/><circle cx="303.6" cy="226.2" r=".8" transform="rotate(-90 303.6 226.2)"/><circle cx="303.6" cy="220.4" r=".8" transform="rotate(-90 303.6 220.4)"/><circle cx="303.6" cy="214.6" r=".8" transform="rotate(-90 303.6 214.6)"/><circle cx="303.6" cy="208.8" r=".8" transform="rotate(-90 303.6 208.8)"/><circle cx="303.6" cy="203.1" r=".8" transform="rotate(-90 303.6 203)"/><circle cx="303.6" cy="197.3" r=".8" transform="rotate(-90 303.6 197.3)"/><circle cx="303.6" cy="191.5" r=".8" transform="rotate(-90 303.6 191.5)"/><circle cx="303.6" cy="184.8" r=".8" transform="rotate(-90 303.6 184.8)"/><circle cx="303.6" cy="179.1" r=".8" transform="rotate(-90 303.6 179)"/><circle cx="303.6" cy="173.3" r=".8" transform="rotate(-90 303.6 173.3)"/><circle cx="303.6" cy="167.5" r=".8" transform="rotate(-90 303.6 167.5)"/><circle cx="303.6" cy="161.7" r=".8" transform="rotate(-90 303.6 161.7)"/><circle cx="303.6" cy="155.9" r=".8" transform="rotate(-90 303.6 155.9)"/><circle cx="303.6" cy="150.1" r=".8" transform="rotate(-90 303.6 150)"/><circle cx="303.6" cy="143.5" r=".8" transform="rotate(-90 303.6 143.5)"/><circle cx="303.6" cy="137.7" r=".8" transform="rotate(-90 303.6 137.7)"/><circle cx="309.4" cy="261.8" r=".8" transform="rotate(-90 309.4 261.8)"/><circle cx="309.4" cy="256" r=".8" transform="rotate(-90 309.4 256)"/><circle cx="309.4" cy="250.2" r=".8" transform="rotate(-90 309.4 250.2)"/><circle cx="309.4" cy="244.4" r=".8" transform="rotate(-90 309.4 244.4)"/><circle cx="309.4" cy="238.6" r=".8" transform="rotate(-90 309.4 238.6)"/><circle cx="309.4" cy="232.8" r=".8" transform="rotate(-90 309.4 232.8)"/><circle cx="309.4" cy="226.2" r=".8" transform="rotate(-90 309.4 226.2)"/><circle cx="309.4" cy="220.4" r=".8" transform="rotate(-90 309.4 220.4)"/><circle cx="309.4" cy="214.6" r=".8" transform="rotate(-90 309.4 214.6)"/><circle cx="309.4" cy="208.8" r=".8" transform="rotate(-90 309.4 208.8)"/><circle cx="309.4" cy="203.1" r=".8" transform="rotate(-90 309.4 203)"/><circle cx="309.4" cy="197.3" r=".8" transform="rotate(-90 309.4 197.3)"/><circle cx="309.4" cy="191.5" r=".8" transform="rotate(-90 309.4 191.5)"/><circle cx="309.4" cy="184.8" r=".8" transform="rotate(-90 309.4 184.8)"/><circle cx="309.4" cy="179.1" r=".8" transform="rotate(-90 309.4 179)"/><circle cx="309.4" cy="173.3" r=".8" transform="rotate(-90 309.4 173.3)"/><circle cx="309.4" cy="167.5" r=".8" transform="rotate(-90 309.4 167.5)"/><circle cx="309.4" cy="161.7" r=".8" transform="rotate(-90 309.4 161.7)"/><circle cx="309.4" cy="155.9" r=".8" transform="rotate(-90 309.4 155.9)"/><circle cx="309.4" cy="150.1" r=".8" transform="rotate(-90 309.4 150)"/><circle cx="309.4" cy="143.5" r=".8" transform="rotate(-90 309.4 143.5)"/><circle cx="309.4" cy="137.7" r=".8" transform="rotate(-90 309.4 137.7)"/><circle cx="315.2" cy="261.8" r=".8" transform="rotate(-90 315.2 261.8)"/><circle cx="315.2" cy="256" r=".8" transform="rotate(-90 315.2 256)"/><circle cx="315.2" cy="250.2" r=".8" transform="rotate(-90 315.2 250.2)"/><circle cx="315.2" cy="244.4" r=".8" transform="rotate(-90 315.2 244.4)"/><circle cx="315.2" cy="238.6" r=".8" transform="rotate(-90 315.2 238.6)"/><circle cx="315.2" cy="232.8" r=".8" transform="rotate(-90 315.2 232.8)"/><circle cx="315.2" cy="226.2" r=".8" transform="rotate(-90 315.2 226.2)"/><circle cx="315.2" cy="220.4" r=".8" transform="rotate(-90 315.2 220.4)"/><circle cx="315.2" cy="214.6" r=".8" transform="rotate(-90 315.2 214.6)"/><circle cx="315.2" cy="208.8" r=".8" transform="rotate(-90 315.2 208.8)"/><circle cx="315.2" cy="203.1" r=".8" transform="rotate(-90 315.2 203)"/><circle cx="315.2" cy="197.3" r=".8" transform="rotate(-90 315.2 197.3)"/><circle cx="315.2" cy="191.5" r=".8" transform="rotate(-90 315.2 191.5)"/><circle cx="315.2" cy="184.8" r=".8" transform="rotate(-90 315.2 184.8)"/><circle cx="315.2" cy="179.1" r=".8" transform="rotate(-90 315.2 179)"/><circle cx="315.2" cy="173.3" r=".8" transform="rotate(-90 315.2 173.3)"/><circle cx="315.2" cy="167.5" r=".8" transform="rotate(-90 315.2 167.5)"/><circle cx="315.2" cy="161.7" r=".8" transform="rotate(-90 315.2 161.7)"/><circle cx="315.2" cy="155.9" r=".8" transform="rotate(-90 315.2 155.9)"/><circle cx="315.2" cy="150.1" r=".8" transform="rotate(-90 315.2 150)"/><circle cx="315.2" cy="143.5" r=".8" transform="rotate(-90 315.2 143.5)"/><circle cx="315.2" cy="137.7" r=".8" transform="rotate(-90 315.2 137.7)"/></g></g><path stroke="#D87D19" stroke-linecap="round" stroke-width="4" d="M189 176v-43.8L156 99"/><circle cx="146" cy="79" r="26" fill="#fff" stroke="#D87D19" stroke-linecap="round" stroke-width="4"/><path stroke="#FF7712" stroke-linecap="round" stroke-linejoin="round" stroke-width="3" d="M136 73a16 16 0 0 1 16 16"/><path fill="#FFE2D7" stroke="#FF7712" stroke-linecap="round" stroke-linejoin="round" stroke-width="3" d="M141.5 83.5a7.7 7.7 0 0 0-5.5-2.2V89h7.7c0-2-.8-4-2.2-5.5Z"/><path stroke="#FF7712" stroke-linecap="round" stroke-width="3" d="M160 89a24 24 0 0 0-24-24"/><path stroke="#D87D19" stroke-linecap="round" stroke-width="4" d="M189 226v43.8L156 303"/><circle cx="6" cy="6" r="8" fill="#fff" stroke="#D87D19" stroke-linecap="round" stroke-width="4" transform="matrix(1 0 0 -1 150 309)"/><path stroke="#D87D19" stroke-linecap="round" stroke-width="4" d="M227 214h43.8l33.2 33M208 226v43.8l33 33.2"/><circle cx="241" cy="303" r="8" fill="#fff" stroke="#D87D19" stroke-linecap="round" stroke-width="4" transform="rotate(180 241 303)"/><path stroke="#D87D19" stroke-linecap="round" stroke-width="4" d="M171 214h-43.8L94 247"/><circle cx="6" cy="6" r="8" fill="#fff" stroke="#AF6C22" stroke-linecap="round" stroke-width="4" transform="matrix(-1 0 0 1 101 241)"/><path stroke="#D87D19" stroke-linecap="round" stroke-width="4" d="M171 191h-43.8L94 158"/><circle cx="95" cy="158" r="8" fill="#fff" stroke="#D87D19" stroke-linecap="round" stroke-width="4" transform="rotate(180 95 158)"/><path stroke="#D87D19" stroke-linecap="round" stroke-width="4" d="M227 191h43.8l33.2-33"/><circle cx="6" cy="6" r="8" fill="#fff" stroke="#D87D19" stroke-linecap="round" stroke-width="4" transform="matrix(1 0 0 -1 297 164)"/><circle cx="315" cy="260" r="26" fill="#fff" stroke="#D87D19" stroke-linecap="round" stroke-width="4"/><path fill="#FFE2D7" stroke="#FF7712" stroke-width="3.3" d="M305.4 268.6a4.4 4.4 0 0 0 4 4c4.1.3 8 .3 12.2 0a4.4 4.4 0 0 0 4-4 105.5 105.5 0 0 0 0-18.2 4.4 4.4 0 0 0-4-4c-4.1-.3-8-.3-12.2 0a4.4 4.4 0 0 0-4 4 105 105 0 0 0 0 18.2Z"/><path stroke="#FF7712" stroke-linecap="round" stroke-linejoin="round" stroke-width="3.3" d="M314 266.5h3"/><path fill="#fff" d="M188.6 203.8h23.2v9.1h-23.2z"/><g filter="url(#d)"><rect width="100" height="100" x="149" y="150" fill="#fff" rx="50"/><rect width="100" height="100" x="149" y="150" stroke="#FEDF19" stroke-width="4" rx="50"/></g><circle cx="4.7" cy="4.7" r="4.7" fill="#C5C7C8" transform="matrix(-1 0 0 1 184.6 181.9)"/><circle cx="4.7" cy="4.7" r="4.7" fill="#000" fill-opacity=".8" transform="matrix(-1 0 0 1 184.6 181.9)"/><path stroke="#C5C7C8" stroke-width="2.1" d="m179.2 185.8 8.6 8.7"/><path stroke="#000" stroke-opacity=".8" stroke-width="2.1" d="m179.2 185.8 8.6 8.7"/><circle cx="217.9" cy="186.5" r="4.7" fill="#C5C7C8"/><circle cx="217.9" cy="186.5" r="4.7" fill="#000" fill-opacity=".8"/><path stroke="#C5C7C8" stroke-width="2.1" d="m218.8 185.8-8.7 8.7"/><path stroke="#000" stroke-opacity=".8" stroke-width="2.1" d="m218.8 185.8-8.7 8.7"/><path fill="#FFDF6F" fill-rule="evenodd" d="M181 214.1a5.8 5.8 0 0 1-3.3-6.1c2-11.9 10.8-20.9 21.4-20.9 10.6 0 19.4 9 21.3 21 .5 2.5-.9 5-3.2 6a41.5 41.5 0 0 1-36.3 0Z" clip-rule="evenodd"/><path fill="#C5C7C8" d="m220.4 208-1 .3 1-.2Zm-3.2 6.2-.5-1 .5 1Zm-38.4-6c2-11.6 10.4-20 20.3-20v-2.1c-11.2 0-20.4 9.5-22.4 21.7l2 .4Zm20.3-20c9.9 0 18.4 8.5 20.3 20l2.1-.3c-2-12.3-11.2-21.8-22.4-21.8v2.1Zm17.6 25c-5.3 2.6-11.2 4-17.5 4v2.2c6.6 0 12.9-1.5 18.5-4.2l-1-2Zm-17.5 4c-6.4 0-12.4-1.4-17.8-4l-1 1.9c5.7 2.7 12 4.3 18.8 4.3v-2.2Zm20.2-9c.3 2.1-.8 4.1-2.7 5l1 2a6.8 6.8 0 0 0 3.8-7.3l-2.1.4Zm-42.7-.4c-.5 3 1 6 3.8 7.3l1-2c-2-.9-3-2.9-2.7-5l-2.1-.3Z"/><path fill="#000" fill-opacity=".8" d="m220.4 208-1 .3 1-.2Zm-3.2 6.2-.5-1 .5 1Zm-38.4-6c2-11.6 10.4-20 20.3-20v-2.1c-11.2 0-20.4 9.5-22.4 21.7l2 .4Zm20.3-20c9.9 0 18.4 8.5 20.3 20l2.1-.3c-2-12.3-11.2-21.8-22.4-21.8v2.1Zm17.6 25c-5.3 2.6-11.2 4-17.5 4v2.2c6.6 0 12.9-1.5 18.5-4.2l-1-2Zm-17.5 4c-6.4 0-12.4-1.4-17.8-4l-1 1.9c5.7 2.7 12 4.3 18.8 4.3v-2.2Zm20.2-9c.3 2.1-.8 4.1-2.7 5l1 2a6.8 6.8 0 0 0 3.8-7.3l-2.1.4Zm-42.7-.4c-.5 3 1 6 3.8 7.3l1-2c-2-.9-3-2.9-2.7-5l-2.1-.3Z"/><path fill="#C5C7C8" fill-rule="evenodd" d="M185.5 211.2c-1.9-.7-3-2.7-2.4-4.6 2.1-6.5 8.5-11.3 16-11.3s13.9 4.8 16 11.3c.5 1.9-.6 3.9-2.4 4.6a35.3 35.3 0 0 1-27.2 0Z" clip-rule="evenodd"/><path fill="#000" fill-opacity=".8" fill-rule="evenodd" d="M185.5 211.2c-1.9-.7-3-2.7-2.4-4.6 2.1-6.5 8.5-11.3 16-11.3s13.9 4.8 16 11.3c.5 1.9-.6 3.9-2.4 4.6a35.3 35.3 0 0 1-27.2 0Z" clip-rule="evenodd"/><ellipse cx="204.4" cy="205.3" fill="#F8C455" rx="3.9" ry="3.1"/><ellipse cx="204.4" cy="205.3" fill="#fff" rx="3.9" ry="3.1"/><ellipse cx="193.3" cy="205.3" fill="#F8C455" rx="3.9" ry="3.1"/><ellipse cx="193.3" cy="205.3" fill="#fff" rx="3.9" ry="3.1"/><rect width="52" height="52" x="289" y="120" fill="#fff" rx="26"/><rect width="40" height="40" x="295" y="126" fill="#fff" rx="20"/><rect width="52" height="52" x="289" y="120" stroke="#D87D19" stroke-linecap="round" stroke-width="4" rx="26"/><rect width="52" height="52" x="216" y="53" fill="#fff" rx="26"/><rect width="40" height="40" x="222" y="59" fill="#fff" rx="20"/><rect width="52" height="52" x="216" y="53" stroke="#D87D19" stroke-linecap="round" stroke-width="4" rx="26"/><rect width="52" height="52" x="60" y="120" fill="#fff" rx="26"/><rect width="40" height="40" x="66" y="126" fill="#fff" rx="20"/><rect width="52" height="52" x="60" y="120" stroke="#D87D19" stroke-linecap="round" stroke-width="4" rx="26"/><rect width="52" height="52" x="60" y="235" fill="#fff" rx="26"/><rect width="40" height="40" x="66" y="241" fill="#fff" rx="20"/><rect width="52" height="52" x="60" y="235" stroke="#D87D19" stroke-linecap="round" stroke-width="4" rx="26"/><rect width="52" height="52" x="120" y="290" fill="#fff" rx="26"/><rect width="40" height="40" x="126" y="296" fill="#fff" rx="20"/><rect width="52" height="52" x="120" y="290" stroke="#D87D19" stroke-linecap="round" stroke-width="4" rx="26"/><rect width="52" height="52" x="219" y="290" fill="#fff" rx="26"/><rect width="40" height="40" x="225" y="296" fill="#fff" rx="20"/><rect width="52" height="52" x="219" y="290" stroke="#D87D19" stroke-linecap="round" stroke-width="4" rx="26"/><path stroke="#FF7712" stroke-linecap="round" stroke-linejoin="round" stroke-width="3" d="M85.9 154.7v3.8"/><path fill="#FFE2D7" stroke="#FF8412" stroke-width="3" d="M86 133.5c3 0 5.8 1.9 5.9 4.5.1 4.5 1.2 11.6-5.9 11.6-7 0-6-7.1-6-11.6.2-2.6 2.9-4.5 6-4.5Z"/><path stroke="#FF7712" stroke-linecap="round" stroke-linejoin="round" stroke-width="3" d="M74.8 146.1c.4 4.8 4.4 8.6 11.1 8.6 6.3 0 10.5-3.8 11.3-8.6M98.5 248.5h-1a4 4 0 0 0-3.8 3.1l-1.1 4.7"/><path fill="#FFE2D7" stroke="#FF8412" stroke-linecap="round" stroke-linejoin="round" stroke-width="3" d="M74 258c.4 3 1.2 5.4 1.9 6.9.4.7 1 1.3 1.8 1.6 1 .2 2.7.5 5.5.5 2.9 0 4.6-.3 5.6-.6.8-.2 1.4-.8 1.8-1.5.9-1.9 1.9-5 1.9-8.9H76c-1.1 0-2 .9-2 2Z"/><path fill="#D57641" stroke="#FF7712" stroke-linecap="round" stroke-linejoin="round" stroke-width="3" d="M76.5 273a1 1 0 1 0 0-2 1 1 0 0 0 0 2ZM89.5 273a1 1 0 1 0 0-2 1 1 0 0 0 0 2Z"/><path stroke="#FF7712" stroke-width="3" d="M146.5 303c-8.3 0-13 6-12.5 12.1l.5 5.1M146.5 303c8.2 0 12.9 6 12.4 12.1l-.5 5.1"/><path fill="#FFE2D7" stroke="#FF8412" stroke-width="3" d="M150.3 319a4 4 0 0 1 4.3-3.7h.2a4 4 0 0 1 3.7 4.4l-.4 4.3a4 4 0 0 1-4.3 3.7h-.3a4 4 0 0 1-3.6-4.4l.4-4.3ZM134.4 319.7a4 4 0 0 1 3.7-4.3h.2a4 4 0 0 1 4.3 3.6l.4 4.3a4 4 0 0 1-3.6 4.3h-.2a4 4 0 0 1-4.4-3.6l-.4-4.3ZM233.3 320.2a6.2 6.2 0 0 0 5.6 5.4 67.5 67.5 0 0 0 12.2 0 6.2 6.2 0 0 0 5.6-5.4 36 36 0 0 0 0-8.4 6.2 6.2 0 0 0-5.6-5.4 67.5 67.5 0 0 0-12.2 0 6.2 6.2 0 0 0-5.6 5.4 36 36 0 0 0 0 8.4Z"/><path fill="#fff" stroke="#FF7712" stroke-width="3" d="M244.6 320.5c2.4-1.3 5.6-3.2 5.6-4.5 0-1.3-3.2-3.2-5.6-4.5-1.3-.7-2.8.2-2.8 1.7v5.6c0 1.5 1.5 2.4 2.8 1.7Z"/><path fill="#FFE2D7" stroke="#FF8412" stroke-linejoin="round" stroke-width="3" d="M315 150.9h-2c-1 0-2 .8-2 1.8l-.1 1.3v.4a2 2 0 0 1-1.7 1.8l-2.2.2c-.7 0-1.4 0-2.1-.2a2 2 0 0 1-1.7-1.8v-.4a65 65 0 0 1 .4-13.1 5.9 5.9 0 0 1 5.4-5 83.8 83.8 0 0 1 12.2 0c2.7.1 5 2.2 5.3 5a39 39 0 0 1 .4 8.7c0 1.5 0 3-.2 4.4v.4a2 2 0 0 1-1.6 1.8l-2.2.2c-.8 0-1.5 0-2.2-.2a2 2 0 0 1-1.6-1.8v-.4l-.2-1.2c0-1.1-1-2-2-2l-1.8.1Z"/><path stroke="#FF7712" stroke-linecap="round" stroke-linejoin="round" stroke-width="3" d="M310 146v-4.7M307.6 143.7h4.7"/><path fill="#D57641" d="M322 144a2 2 0 1 1-4 0 2 2 0 0 1 4 0Z"/><path fill="#fff" d="M234.7 68.5a10.5 10.5 0 0 1 15.6 6.7 10.6 10.6 0 0 1-10.3 13c-1.3 0-2.6-.3-3.8-.8l-5.6.9a1 1 0 0 1-1-1.3l1.3-4.2a10.6 10.6 0 0 1 3.8-14.3Z"/><path stroke="#FF7712" stroke-linecap="round" stroke-linejoin="round" stroke-width="3" d="M234.7 68.5a10.5 10.5 0 0 1 15.6 6.7 10.6 10.6 0 0 1-10.3 13c-1.3 0-2.6-.3-3.8-.8l-5.6.9a1 1 0 0 1-1-1.3l1.3-4.2a10.6 10.6 0 0 1 3.8-14.3Z"/><path fill="#FFE2D7" stroke="#FF8412" stroke-linecap="round" stroke-linejoin="round" stroke-width="3" d="M250.3 76.5a7.9 7.9 0 0 0-11.8 5 8 8 0 0 0 7.7 9.7c1 0 2-.2 3-.6l4 .7c.6.1 1-.4 1-1l-1.1-3.1a8 8 0 0 0-2.8-10.7Z"/><defs><filter id="a" width="225" height="224" x="88" y="88" color-interpolation-filters="sRGB" filterUnits="userSpaceOnUse"><feFlood flood-opacity="0" result="BackgroundImageFix"/><feBlend in="SourceGraphic" in2="BackgroundImageFix" result="shape"/><feGaussianBlur result="effect1_foregroundBlur_2406_438183" stdDeviation="4"/></filter><filter id="d" width="140" height="140" x="129" y="146" color-interpolation-filters="sRGB" filterUnits="userSpaceOnUse"><feFlood flood-opacity="0" result="BackgroundImageFix"/><feColorMatrix in="SourceAlpha" result="hardAlpha" values="0 0 0 0 0 0 0 0 0 0 0 0 0 0 0 0 0 0 127 0"/><feOffset dy="16"/><feGaussianBlur stdDeviation="9"/><feComposite in2="hardAlpha" operator="out"/><feColorMatrix values="0 0 0 0 0.841667 0 0 0 0 0.3434 0 0 0 0 0.063125 0 0 0 0.5 0"/><feBlend in2="BackgroundImageFix" result="effect1_dropShadow_2406_438183"/><feBlend in="SourceGraphic" in2="effect1_dropShadow_2406_438183" result="shape"/></filter><linearGradient id="b" x1="126" x2="203.5" y1="111.5" y2="212.2" gradientUnits="userSpaceOnUse"><stop stop-color="#FCE9C0"/><stop offset="1" stop-color="#fff" stop-opacity="0"/></linearGradient><clipPath id="c"><path fill="#fff" d="M83 265V135h235v130z"/></clipPath></defs></svg>