<svg xmlns="http://www.w3.org/2000/svg" fill="none" viewBox="0 0 1094 525"><ellipse cx="162.28" cy="480.52" fill="#000" opacity=".1" rx="79.01" ry="14.59"/><path fill="#fff" stroke="#000" stroke-width="12.16" d="M238.44 409.51c40.82 0 59.4-90.38 59.4-124.65 0-26.7-18.43-42.9-42.66-42.9-24.08 0-43.63 10.36-43.87 23.18 0 33.84-5.96 144.37 27.13 144.37ZM89.36 409.51c-40.82 0-59.4-90.38-59.4-124.65 0-26.7 18.44-42.9 42.67-42.9 24.07 0 43.62 10.36 43.87 23.18 0 33.84 5.95 144.37-27.14 144.37Z"/><mask id="a" fill="#fff"><path fill-rule="evenodd" d="M275.31 274.48c.66-6.55-6.7-10.5-12.36-7.15a197.62 197.62 0 0 1-101.07 27.62c-36.57 0-70.83-9.88-100.25-27.13-5.67-3.32-13 .66-12.33 7.2 5.04 48.26 31.34 88.65 67.36 107.46 10.06 5.25 17.1 14.52 24.16 23.84 5.7 7.53 11.44 15.08 18.8 20.56.85.63 1.74.97 2.66.97.92 0 1.8-.34 2.66-.98 7.36-5.47 13.1-13.02 18.8-20.55 7.07-9.32 14.1-18.6 24.16-23.84 36.16-18.88 62.51-59.5 67.41-108Z" clip-rule="evenodd"/></mask><path fill="#FFDF6F" fill-rule="evenodd" d="M275.31 274.48c.66-6.55-6.7-10.5-12.36-7.15a197.62 197.62 0 0 1-101.07 27.62c-36.57 0-70.83-9.88-100.25-27.13-5.67-3.32-13 .66-12.33 7.2 5.04 48.26 31.34 88.65 67.36 107.46 10.06 5.25 17.1 14.52 24.16 23.84 5.7 7.53 11.44 15.08 18.8 20.56.85.63 1.74.97 2.66.97.92 0 1.8-.34 2.66-.98 7.36-5.47 13.1-13.02 18.8-20.55 7.07-9.32 14.1-18.6 24.16-23.84 36.16-18.88 62.51-59.5 67.41-108Z" clip-rule="evenodd"/><path fill="#000" d="m116.66 382.48 5.63-10.78-5.63 10.78Zm24.16 23.84-9.69 7.34 9.69-7.34Zm18.8 20.56 7.25-9.76-7.25 9.75Zm5.32 0 7.26 9.75-7.26-9.75Zm18.8-20.56-9.68-7.35 9.69 7.35Zm24.16-23.84 5.62 10.77-5.62-10.77Zm67.41-108-12.1-1.22 12.1 1.22Zm-18.56-17.6a185.45 185.45 0 0 1-94.88 25.92v24.3c39.15 0 75.84-10.68 107.27-29.31l-12.39-20.91Zm-94.88 25.92c-34.34 0-66.48-9.28-94.1-25.46L55.5 278.3a209.77 209.77 0 0 0 106.39 28.8V282.8Zm-124.65-6.52c5.4 51.7 33.67 96.02 73.82 116.97l11.25-21.55c-31.9-16.65-56.22-53.13-60.9-97.94l-24.17 2.52Zm73.82 116.97c7.21 3.77 12.68 10.64 20.09 20.41l19.37-14.69c-6.72-8.86-15.32-20.54-28.21-27.27l-11.25 21.55Zm20.09 20.41c5.5 7.26 12.24 16.29 21.24 22.97l14.5-19.51c-5.73-4.26-10.45-10.34-16.37-18.15l-19.37 14.7Zm21.24 22.97a16.57 16.57 0 0 0 9.91 3.37v-24.3c2.23 0 3.82.85 4.59 1.42l-14.5 19.51Zm9.91 3.37c4.07 0 7.44-1.53 9.92-3.37l-14.5-19.51a7.77 7.77 0 0 1 4.58-1.43V440Zm9.92-3.37c8.99-6.68 15.73-15.71 21.23-22.97l-19.37-14.69c-5.92 7.8-10.64 13.9-16.37 18.15l14.5 19.51Zm21.23-22.97c7.41-9.77 12.88-16.64 20.1-20.4l-11.25-21.56c-12.9 6.73-21.5 18.42-28.22 27.27l19.37 14.7Zm20.1-20.4c40.3-21.04 68.62-65.6 73.87-117.56l-24.18-2.44c-4.55 45.04-28.93 81.73-60.95 98.44l11.25 21.55ZM67.77 257.33a20.69 20.69 0 0 0-20.7-.19 19.5 19.5 0 0 0-9.86 19.13l24.17-2.52a4.81 4.81 0 0 1-2.3 4.53c-1.12.64-2.5.66-3.6.02l12.29-20.97Zm201.36 20.45c-1.09.65-2.48.63-3.6 0a4.82 4.82 0 0 1-2.32-4.52l24.18 2.43a19.5 19.5 0 0 0-9.94-19.1 20.7 20.7 0 0 0-20.71.28l12.4 20.91Z" mask="url(#a)"/><ellipse cx="162.69" cy="273.07" fill="#000" stroke="#000" stroke-width="12.16" rx="106.97" ry="35.66"/><path stroke="#000" stroke-linecap="round" stroke-width="12.16" d="M76.79 333.04s52.76 17.82 86.7 17.82c33.95 0 86.71-17.82 86.71-17.82"/><circle r="24.19" fill="#000" transform="matrix(-1 0 0 1 62.08 120.6)"/><path stroke="#000" stroke-width="12.09" d="m58.05 116.98 45.15 45.14"/><circle cx="259.61" cy="120.6" r="24.19" fill="#000"/><path stroke="#000" stroke-width="12.09" d="m264.04 116.98-45.15 45.14"/><path fill="#FFDF6F" fill-rule="evenodd" d="M68.94 264.93c-13.03-6.2-20.62-20.14-18.08-34.35 10.91-61 56.37-106.75 110.79-106.75 54.55 0 100.1 45.97 110.86 107.2 2.5 14.23-5.14 28.16-18.22 34.32a216.03 216.03 0 0 1-92.24 20.53c-33.32 0-64.9-7.52-93.1-20.95Z" clip-rule="evenodd"/><path fill="#000" d="m272.51 231.02 5.96-1.04-5.96 1.04Zm-215.7.62c10.55-58.94 54.11-101.76 104.84-101.76v-12.1c-58.12 0-105.46 48.68-116.74 111.73l11.9 2.13Zm104.84-101.76c50.85 0 94.5 43.03 104.9 102.19l11.92-2.1c-11.13-63.28-58.57-112.19-116.82-112.19v12.1Zm90.06 130a210 210 0 0 1-89.66 19.95v12.1c33.9 0 66.03-7.57 94.81-21.11l-5.15-10.94Zm-89.66 19.95c-32.4 0-63.09-7.3-90.5-20.36l-5.2 10.92c29 13.81 61.46 21.54 95.7 21.54v-12.1Zm104.5-47.76c2.01 11.42-4.1 22.75-14.84 27.8l5.15 10.95c15.42-7.26 24.6-23.78 21.6-40.84l-11.9 2.09Zm-221.64-2.56c-3.04 17.03 6.07 33.57 21.44 40.88l5.2-10.92c-10.7-5.1-16.77-16.43-14.73-27.83l-11.9-2.13Z"/><path fill="#000" fill-rule="evenodd" d="M92.2 249.77c-10.49-4.28-16.71-15.44-13.08-26.17 11.22-33.1 43.92-57.04 82.53-57.04 38.6 0 71.31 23.95 82.53 57.04 3.63 10.73-2.6 21.9-13.09 26.17a183.69 183.69 0 0 1-69.44 13.54c-24.57 0-48.01-4.81-69.45-13.54Z" clip-rule="evenodd"/><ellipse cx="189.46" cy="218.16" fill="#fff" rx="20.16" ry="16.12"/><ellipse cx="131.76" cy="218.17" fill="#fff" rx="20.16" ry="16.12"/><path fill="currentColor" d="M557.31 263.36h-42.56l20.8-59.2 21.76 59.2ZM507.4 134.4 425.8 352h57.92l15.04-42.88h75.2l15.68 46.08 57.28-5.76-81.28-215.04H507.4ZM721.13 352V126.08l-58.24 3.52V352h58.24Zm61.36 0 28.8-29.12v-196.8l-58.24 3.52V352h29.44Zm9.92-94.72c6.19-6.4 11.95-11.52 17.28-15.36 5.34-3.84 10.56-5.76 15.68-5.76 6.19 0 11.31 1.39 15.36 4.16 4.27 2.77 7.47 6.93 9.6 12.48 2.35 5.33 3.52 11.95 3.52 19.84 0 7.9-1.17 14.72-3.52 20.48-2.34 5.76-5.44 10.13-9.28 13.12a20.8 20.8 0 0 1-13.12 4.48c-5.54 0-11.3-1.5-17.28-4.48-5.97-3.2-12.05-7.68-18.24-13.44l-16.32 34.24c5.98 6.83 11.95 12.37 17.92 16.64a73.97 73.97 0 0 0 18.56 8.96 66.52 66.52 0 0 0 19.2 2.88c16.43 0 30.72-3.1 42.88-9.28 12.38-6.19 21.98-15.47 28.8-27.84 7.04-12.37 10.56-27.73 10.56-46.08 0-18.56-3.52-33.81-10.56-45.76-6.82-11.95-16.21-20.8-28.16-26.56-11.94-5.76-25.6-8.64-40.96-8.64-7.89 0-15.57 1.39-23.04 4.16a85.4 85.4 0 0 0-20.48 10.88 75.68 75.68 0 0 0-14.72 13.44l16.32 37.44Zm179.2 95.36c-1.06 2.99-3.83 5.97-8.31 8.96-4.48 2.99-9.6 5.76-15.36 8.32a464.28 464.28 0 0 1-16 7.04l19.52 45.12a128.03 128.03 0 0 0 29.76-10.88c9.6-4.9 18.02-10.88 25.28-17.92 7.25-7.04 12.48-14.72 15.68-23.04l68.16-173.44h-57.92l-29.76 87.68-31.68-93.44-53.76 15.36 55.68 142.72-1.28 3.52Z"/></svg>