<svg xmlns="http://www.w3.org/2000/svg" width="1210" height="525" fill="none"><circle r="36.7" fill="#000" transform="matrix(-1 0 0 1 94.1 138.1)"/><path stroke="#000" stroke-width="18.3" d="m88 132.6 68.5 68.5"/><circle cx="393.6" cy="138.1" r="36.7" fill="#000"/><path stroke="#000" stroke-width="18.3" d="m400.4 132.6-68.5 68.5"/><path fill="#FFDF6F" fill-rule="evenodd" d="M104.5 357a48.5 48.5 0 0 1-27.4-52.1c16.6-92.5 85.5-161.9 168-161.9 82.7 0 151.8 69.7 168.1 162.6a48.5 48.5 0 0 1-27.6 52 327.6 327.6 0 0 1-139.9 31.2c-50.5 0-98.4-11.4-141.2-31.8Z" clip-rule="evenodd"/><path fill="#000" d="m413.2 305.6-9 1.6 9-1.6Zm-27.6 52-4-8.3 4 8.3Zm-299.4-51c16-89.5 82-154.4 159-154.4v-18.3c-88.2 0-160 73.8-177.1 169.4l18 3.2Zm159-154.4c77 0 143.2 65.3 159 155l18-3.2c-16.8-96-88.8-170.1-177-170.1v18.3Zm136.5 197.1a318.4 318.4 0 0 1-136 30.3v18.3c51.4 0 100.1-11.5 143.8-32l-7.8-16.6Zm-136 30.3c-49.1 0-95.6-11.1-137.2-30.9l-7.9 16.6c44 21 93.2 32.6 145.1 32.6v-18.3Zm158.5-72.4c3 17.3-6.2 34.5-22.5 42.1l7.8 16.6c23.4-11 37.3-36 32.7-62l-18 3.3Zm-336.1-4a57.6 57.6 0 0 0 32.5 62l7.9-16.5a39.3 39.3 0 0 1-22.3-42.2L68 303.3Z"/><path fill="#000" fill-rule="evenodd" d="M139.8 334c-15.9-6.5-25.3-23.4-19.8-39.7 17-50.2 66.6-86.5 125.1-86.5s108.1 36.3 125.1 86.5c5.6 16.3-3.9 33.2-19.8 39.7a278.6 278.6 0 0 1-105.3 20.5c-37.2 0-72.8-7.3-105.3-20.5Z" clip-rule="evenodd"/><ellipse cx="287.3" cy="286.1" fill="#fff" rx="30.6" ry="24.4"/><ellipse cx="199.8" cy="286.1" fill="#fff" rx="30.6" ry="24.4"/><path fill="#000" d="M623.9 134.4h58.2l81.3 215-57.3 5.8-15.6-46h-75.2l-15 42.8h-58l81.6-217.6Zm50 129L652 204.2l-20.8 59.2h42.5ZM837.5 352h-58.2V129.6l58.2-3.5V352Zm61.4 0h-29.4V129.6l58.2-3.5v69.4c3.6-1.3 7.4-2.2 11.2-2.9a93.2 93.2 0 0 1 52.8 7.4 63.8 63.8 0 0 1 28.2 26.6c7 12 10.5 27.2 10.5 45.7a92 92 0 0 1-10.5 46.1 66 66 0 0 1-28.8 27.8 93.4 93.4 0 0 1-43 9.3 65.3 65.3 0 0 1-39.3-13.4L899 352Zm42.9-115.8a27 27 0 0 0-14.1 4.8v65.2c5.8 3 11.3 4.5 16.6 4.5a22 22 0 0 0 18.3-9.9 46 46 0 0 0 7.7-28.2c0-12-2.5-21-7.4-27.2-4.9-6.1-12-9.2-21.1-9.2ZM1088 352.6l1.3-3.5-55.7-142.7 53.8-15.4 31.7 93.5 29.7-87.7h58l-68.2 173.4c-3.2 8.4-8.4 16-15.7 23-7.3 7.1-15.7 13-25.3 18a128 128 0 0 1-29.7 10.9l-19.6-45.1 16-7c5.8-2.6 11-5.4 15.4-8.4 4.5-3 7.3-6 8.3-9Z"/></svg>