<?xml version="1.0" standalone="no"?>
<!DOCTYPE svg PUBLIC "-//W3C//DTD SVG 1.1//EN" "http://www.w3.org/Graphics/SVG/1.1/DTD/svg11.dtd">
<svg xmlns="http://www.w3.org/2000/svg">
<defs >
<font id="Catamaran" horiz-adv-x="583" ><font-face
    font-family="Catamaran Thin Black"
    units-per-em="1000"
    panose-1="0 0 0 0 0 0 0 0 0 0"
    ascent="1100"
    descent="-540"
    alphabetic="0" />
<glyph unicode=" " horiz-adv-x="220" />
<glyph unicode="!" horiz-adv-x="243" d="M51 248L193 208L213 714H31L51 248ZM122 183Q83 183 57 157T30 91Q30 52 56 26T122 0Q160 0 186 26T213 91Q213 130 187 156T122 183Z" />
<glyph unicode="&quot;" horiz-adv-x="453" d="M331 742Q305 742 284 729T251 694T239 650Q239 625 251 604T282 572Q278 559 261 544T230 521L266 441Q310 458 345 488T402 557T423 635Q423 683 396 712T331 742ZM121 742Q95 742 74 729T41 694T29 650Q29 634
34 619T50 592T72 572Q68 559 51 544T20 521L56 441Q100 458 135 488T192 557T213 635Q213 683 186 712T121 742Z" />
<glyph unicode="#" horiz-adv-x="647" d="M433 517L411 426H316L338 517H189L167 426H30L41 293H135L117 215H30L41 82H85L64 -10L211 -15L234 82H329L308 -10L455 -15L478 82H617L607 215H510L528 293H617L607 426H560L582 517H433ZM379 293L361 215H266L284 293H379Z" />
<glyph unicode="$" horiz-adv-x="547" d="M125 -119V6Q107 11 91 16T60 28T33 42L93 179Q111 169 138 159T196 143T251 136Q281 136 300 141T329 155T339 177Q339 193 324 208T284 238T234 268Q201 288 166 310T99 359T49 420T30 498Q31 555 62 599T151 668V789L269
799V693Q273 693 276 693T283 693Q291 693 298 693T313 692V789L432 799V664Q446 658 459 652T483 637L429 514Q393 527 370 533T327 541T285 544Q254 544 236 533T218 503Q218 486 232 473T270 448T321 419Q357 398 393 375T460 324T508 263T527 187Q527 132 497
88T410 17V-122H291V-12Q283 -12 274 -12T256 -13H243V-119H125Z" />
<glyph unicode="%" horiz-adv-x="974" d="M542 706L244 0H431L730 706H542ZM200 702Q145 702 105 680T42 616T20 519Q20 463 40 422T100 359T195 337Q252 337 294 359T359 421T382 517Q382 573 361 614T299 679T200 702ZM202 578Q226 578 235 562T244 517Q244
497 239 484T224 465T198 458Q176 458 167 473T158 519Q158 540 163 553T179 572T202 578ZM772 366Q717 366 677 344T614 280T592 183Q592 127 612 86T672 23T767 1Q824 1 866 23T931 85T954 181Q954 237 933 278T871 343T772 366ZM774 242Q798 242 807 226T816
181Q816 161 811 148T796 129T770 122Q748 122 739 137T730 183Q730 204 735 217T751 236T774 242Z" />
<glyph unicode="&amp;" horiz-adv-x="689" d="M368 150Q354 139 340 133T309 126Q280 126 260 137T229 169T218 218Q218 231 221 244T230 270Q239 263 247 255T265 239L368 150ZM562 -19L669 113L593 177Q615 219 629 265T649 357L489 421Q485 393 477 360T456
293L327 403Q305 424 290 438T268 465T261 490Q261 504 269 517T293 538T333 547Q364 547 396 539T462 511L511 635Q468 666 418 681T309 696Q243 696 192 668T112 594T83 493Q83 462 91 437T116 387Q77 353 54 306T30 212Q30 133 67 81T167 2T305 -24Q356 -24
402 -5T488 45L562 -19Z" />
<glyph unicode="&apos;" horiz-adv-x="243" d="M121 742Q95 742 74 729T41 694T29 650Q29 634 34 619T50 592T72 572Q68 559 51 544T20 521L56 441Q100 458 135 488T192 557T213 635Q213 683 186 712T121 742Z" />
<glyph unicode="(" horiz-adv-x="370" d="M339 -1Q318 25 299 64T264 148T241 238T232 322Q232 360 240 403T264 491T299 575T340 645L177 682Q137 624 109 566T65 447T50 321Q50 255 65 192T109 71T177 -39L339 -1Z" />
<glyph unicode=")" horiz-adv-x="370" d="M31 644Q52 618 71 579T106 495T129 405T138 321Q138 284 130 240T106 152T71 68T30 -2L193 -39Q234 19 262 77T305 197T320 322Q320 388 305 451T261 572T193 682L31 644Z" />
<glyph unicode="*" horiz-adv-x="424" d="M285 782H141V686L44 714L10 585L104 568L32 477L149 403L212 496L275 403L392 477L320 568L414 585L380 714L285 686V782Z" />
<glyph unicode="+" d="M543 345H376V530H208V345H30L41 202H208V8L376 0V202H553L543 345Z" />
<glyph unicode="," horiz-adv-x="243" d="M121 147Q95 147 74 134T41 99T29 55Q29 39 34 24T50 -3T72 -23Q68 -36 51 -51T20 -74L56 -154Q100 -137 135 -107T192 -38T213 40Q213 88 186 117T121 147Z" />
<glyph unicode="-" horiz-adv-x="352" d="M312 345H30L41 202H322L312 345Z" />
<glyph unicode="." horiz-adv-x="243" d="M122 0Q160 0 186 26T213 91Q213 130 187 156T122 183Q83 183 57 157T30 91Q30 52 56 26T122 0Z" />
<glyph unicode="/" horiz-adv-x="506" d="M308 706L10 0H197L496 706H308Z" />
<glyph unicode="0" horiz-adv-x="678" d="M20 284Q20 198 61 131T174 25T338 -14Q431 -14 503 25T617 131T658 286Q658 371 617 437T504 541T339 579Q246 579 174 541T61 437T20 284ZM208 287Q208 329 225 361T271 412T338 431Q377 431 406 412T453 360T470 283Q470
240 453 207T407 154T339 134Q301 134 272 153T225 207T208 287Z" />
<glyph unicode="1" horiz-adv-x="439" d="M379 0V566H258L10 459L81 313L197 363V0H379Z" />
<glyph unicode="2" horiz-adv-x="497" d="M231 579Q164 579 115 562T38 527L61 379Q79 389 106 401T164 421T225 430Q263 430 285 419T308 382Q308 363 294 345T258 308T214 270L25 106V0H477L465 143H283L324 178Q370 217 402 252T452 325T470 403Q470 466 440
505T356 561T231 579Z" />
<glyph unicode="3" horiz-adv-x="536" d="M255 579Q196 579 135 563T21 505L108 382Q143 406 176 418T237 431Q263 431 279 425T304 409T312 386Q312 361 287 346T218 330H136L151 187H254Q284 187 303 171T323 126Q323 109 313 96T285 76T244 69Q209 69 175 80T97
119L0 -2Q57 -39 122 -58T243 -78Q324 -78 384 -53T477 18T511 121Q511 151 500 180T469 233T425 272Q443 282 460 303T489 351T500 402Q500 455 470 494T384 556T255 579Z" />
<glyph unicode="4" horiz-adv-x="611" d="M591 197H491V571H355L10 187L31 54H309V-63H491V54H582L591 197ZM309 297V197H224L309 297Z" />
<glyph unicode="5" horiz-adv-x="533" d="M224 180Q230 195 246 209T285 223Q313 223 331 205T349 154Q349 118 324 97T262 76Q225 76 191 88T111 126L20 -3Q54 -26 95 -43T180 -70T259 -79Q338 -79 394 -49T482 33T513 154Q513 213 489 263T419 343T305 374Q284
374 270 370T243 358V423H466L484 566H90L71 180H224Z" />
<glyph unicode="6" horiz-adv-x="585" d="M114 294L139 181Q163 207 188 229T240 266T295 280Q319 280 337 271T366 246T377 209Q377 188 367 171T341 144T307 134Q277 134 256 150T223 195T211 261Q211 318 231 354T283 411T354 442T430 458T498 467L480 634Q432
631 371 619T249 583T135 516T52 409T20 252Q20 175 57 115T160 21T312 -13Q391 -13 447 14T534 88T565 195Q565 255 534 300T447 372T319 398Q284 398 248 384T177 346T114 294Z" />
<glyph unicode="7" horiz-adv-x="518" d="M289 -77L498 494L464 566H10L27 423H299L108 -30L289 -77Z" />
<glyph unicode="8" horiz-adv-x="572" d="M287 643Q220 643 164 620T75 556T42 457Q42 423 60 393T103 341Q81 325 62 302T32 253T20 197Q20 131 53 84T146 12T287 -13Q371 -13 430 13T520 87T552 197Q552 226 541 252T512 301T470 340Q487 354 500 372T522 413T530
457Q530 514 497 555T409 620T287 643ZM285 494Q315 494 328 478T341 447Q341 435 335 423T317 401T287 389Q259 393 245 410T231 446Q231 456 237 467T255 486T285 494ZM287 283Q324 276 344 252T365 205Q365 187 354 171T324 145T286 135Q266 135 248 145T219
171T208 205Q208 227 227 251T287 283Z" />
<glyph unicode="9" horiz-adv-x="585" d="M471 272L446 385Q423 360 398 337T345 300T290 286Q267 286 248 295T219 320T208 357Q208 379 218 395T244 422T278 432Q308 432 329 416T362 371T374 305Q374 248 354 212T302 155T232 124T155 109T87 99L105 -68Q153
-65 214 -53T336 -17T450 50T533 158T565 314Q565 391 528 451T426 545T273 579Q195 579 138 552T51 479T20 371Q20 311 51 266T138 194T266 168Q302 168 338 182T408 220T471 272Z" />
<glyph unicode=":" horiz-adv-x="243" d="M122 293Q160 293 186 319T213 384Q213 423 187 449T122 476Q83 476 57 450T30 384Q30 345 56 319T122 293ZM122 0Q160 0 186 26T213 91Q213 130 187 156T122 183Q83 183 57 157T30 91Q30 52 56 26T122 0Z" />
<glyph unicode=";" horiz-adv-x="244" d="M123 293Q161 293 187 319T214 384Q214 423 188 449T123 476Q84 476 58 450T31 384Q31 345 57 319T123 293ZM121 183Q95 183 74 170T41 135T29 91Q29 75 34 60T50 33T72 13Q68 0 51 -15T20 -38L56 -118Q100 -101 135 -71T192
-2T213 76Q213 124 186 153T121 183Z" />
<glyph unicode="&lt;" horiz-adv-x="382" d="M362 157L227 253L362 348L329 505L30 293V212L329 -2L362 157Z" />
<glyph unicode="=" horiz-adv-x="543" d="M503 426H30L41 293H513L503 426ZM503 215H30L41 82H513L503 215Z" />
<glyph unicode="&gt;" horiz-adv-x="382" d="M352 291L53 505L20 346L155 250L20 155L53 -2L352 210V291Z" />
<glyph unicode="?" horiz-adv-x="467" d="M201 701Q157 701 109 690T10 649L33 500Q93 534 133 543T198 553Q220 553 234 542T249 512Q249 485 207 454T98 402L105 243L248 204L260 319Q324 342 362 370T419 434T437 509Q437 567 407 610T324 677T201 701ZM167
183Q128 183 102 157T75 91Q75 52 101 26T167 0Q205 0 231 26T258 91Q258 130 232 156T167 183Z" />
<glyph unicode="@" horiz-adv-x="812" d="M589 383L548 444H459Q420 444 379 434T301 400T243 335T221 229Q221 153 266 105T408 57Q430 57 449 62T487 76Q501 64 519 59T557 54Q598 54 639 70T715 120T771 200T792 309Q792 374 765 432T690 534T576 604T433 630Q334
630 258 598T128 511T48 385T20 238Q20 152 52 87T139 -22T265 -88T414 -111Q463 -111 517 -103T634 -62L590 39Q568 31 535 26T470 18T423 16Q359 16 304 40T214 112T179 231Q179 291 198 339T252 422T334 475T439 494Q511 494 556 467T622 396T643 304Q643 269
629 244T597 205T571 191Q568 191 567 193T566 200L589 383ZM406 199Q392 199 384 205T371 220T367 237Q367 261 374 281T398 313T438 325H440L428 231Q427 227 427 219T426 205Q425 202 418 201T406 199Z" />
<glyph unicode="A" horiz-adv-x="711" d="M421 277H288L353 462L421 277ZM265 680L10 0H191L238 134H473L522 -10L701 8L447 680H265Z" />
<glyph unicode="B" horiz-adv-x="645" d="M337 0Q392 0 443 10T536 43T601 105T625 203Q625 252 600 292T534 361Q557 384 577 414T597 484Q597 554 558 597T456 660T317 680H80V0H337ZM311 537Q342 537 363 530T397 510T409 475Q409 457 394 446T355 428T303
422H262V537H311ZM339 279Q385 279 411 260T437 207Q437 186 425 172T391 150T341 143H262V279H339Z" />
<glyph unicode="C" horiz-adv-x="596" d="M579 637Q553 655 519 667T449 686T379 693Q304 693 240 667T129 594T56 481T30 337Q30 260 54 196T123 85T234 13T383 -13Q418 -13 454 -7T525 10T586 37L517 173Q491 157 458 147T388 136Q356 136 326 149T271 189T233
252T218 338Q218 400 242 446T303 518T381 544Q404 544 423 542T465 533T525 514L579 637Z" />
<glyph unicode="D" horiz-adv-x="739" d="M384 0Q480 0 553 42T667 161T709 344Q709 441 673 516T565 636T388 680H80V0H384ZM379 537Q425 537 456 512T504 444T521 344Q521 277 501 232T448 165T372 143H262V537H379Z" />
<glyph unicode="E" horiz-adv-x="598" d="M578 0L561 143H262V270H488L471 413H262V537H548L531 680H80V0H578Z" />
<glyph unicode="F" horiz-adv-x="558" d="M471 400H262V536H538L521 679H80V0H262V257H488L471 400Z" />
<glyph unicode="G" horiz-adv-x="666" d="M345 259H462V142Q445 139 429 138T398 136Q356 136 315 156T246 220T218 338Q218 390 235 429T279 493T338 531T401 544Q424 544 448 542T500 533T565 514L619 637Q593 655 554 667T474 686T399 693Q324 693 257 669T139
599T59 487T30 337Q30 226 74 148T201 29T393 -13Q428 -13 472 -7T558 10T626 37V392H361L345 259Z" />
<glyph unicode="H" horiz-adv-x="762" d="M682 0V680H500V409H262V686L80 680V0H262V266H500V0H682Z" />
<glyph unicode="I" horiz-adv-x="342" d="M262 0V680H80V0H262Z" />
<glyph unicode="J" horiz-adv-x="345" d="M93 137Q93 119 88 102T65 69T10 38L84 -106Q155 -83 196 -59T256 0T275 84V680H93V137Z" />
<glyph unicode="K" horiz-adv-x="730" d="M489 0L315 254L262 204V0H80V680H262V444L535 695L676 593L445 377L720 0H489Z" />
<glyph unicode="L" horiz-adv-x="578" d="M551 143H262V680H80V0H568L551 143Z" />
<glyph unicode="M" horiz-adv-x="799" d="M445 205L537 329V0H719V680H598L410 421L205 680H80V0H262V329L372 195L445 205Z" />
<glyph unicode="N" horiz-adv-x="773" d="M262 0V358L313 288L523 0H693V680H511L514 311L462 380L249 680H80V0H262Z" />
<glyph unicode="O" horiz-adv-x="763" d="M381 -14Q273 -14 194 33T73 160T30 337Q30 442 75 522T199 648T381 694Q492 694 570 647T691 521T733 344Q733 239 689 158T565 32T381 -14ZM380 138Q427 138 464 161T524 230T546 344Q546 401 527 445T471 516T383 542Q338
542 300 517T240 446T217 338Q217 281 236 236T292 164T380 138Z" />
<glyph unicode="P" horiz-adv-x="666" d="M262 0V198H358Q413 198 464 212T557 255T622 329T646 435Q646 517 608 571T506 653T366 680H80V0H262ZM360 537Q391 537 412 524T446 488T458 435Q458 409 446 388T412 354T362 341H262V537H360Z" />
<glyph unicode="Q" horiz-adv-x="763" d="M456 331L336 229L605 -52L717 45L456 331ZM381 694Q279 694 200 649T75 523T30 337Q30 240 72 160T194 33T381 -14Q485 -14 564 31T688 158T733 344Q733 442 691 521T571 647T381 694ZM217 338Q217 400 239 445T300 516T383
542Q434 542 470 516T526 446T546 344Q546 276 524 230T465 161T380 138Q329 138 293 164T237 235T217 338Z" />
<glyph unicode="R" horiz-adv-x="714" d="M360 537Q391 537 412 528T446 498T458 448Q458 422 446 401T412 369T362 357H262V537H360ZM80 680V0H262V214H323Q338 214 353 214T383 214L493 0H704L554 268Q595 296 620 341T646 448Q646 530 608 581T506 656T366 680H80Z" />
<glyph unicode="S" horiz-adv-x="547" d="M33 42Q53 30 80 20T138 3T199 -9T256 -13Q340 -13 401 13T494 84T527 187Q527 229 509 262T460 324T394 375T321 419Q294 435 271 446T233 470T218 496Q218 515 236 529T285 544Q308 544 327 542T369 533T429 514L483
637Q443 664 389 678T283 693Q206 693 149 668T62 598T30 498Q30 455 49 421T99 359T165 310T234 268Q260 253 284 240T323 214T339 189Q339 177 329 165T300 144T251 136Q227 136 197 142T139 159T93 179L33 42Z" />
<glyph unicode="T" horiz-adv-x="619" d="M592 680H10V537H210V0H392V537H609L592 680Z" />
<glyph unicode="U" horiz-adv-x="750" d="M252 680H70V260Q70 172 108 111T216 18T375 -14Q466 -14 534 17T641 110T680 260V680H498V269Q498 227 482 198T439 153T375 138Q339 138 311 153T268 197T252 269V680Z" />
<glyph unicode="V" horiz-adv-x="711" d="M189 690L10 672L264 0H446L701 680H520L358 218L189 690Z" />
<glyph unicode="W" horiz-adv-x="1000" d="M990 680L795 0H613L501 427L396 0H214L10 672L189 690L308 218L410 680H591L707 218L809 680H990Z" />
<glyph unicode="X" horiz-adv-x="715" d="M225 0L362 186L472 0H705L477 345L704 680H478L362 498L225 705L29 648L247 338L10 0H225Z" />
<glyph unicode="Y" horiz-adv-x="654" d="M408 0V266L644 680H457L316 435L184 694L10 646L226 268V0H408Z" />
<glyph unicode="Z" horiz-adv-x="584" d="M554 143H220L574 551L555 680H39L56 537H357L10 128L30 0H571L554 143Z" />
<glyph unicode="[" horiz-adv-x="478" d="M100 -87H468L451 56H282V553H452L468 696H100V-87Z" />
<glyph unicode="\" horiz-adv-x="506" d="M496 0L198 710H10L309 0H496Z" />
<glyph unicode="]" horiz-adv-x="478" d="M378 696H10L26 553H196V56H27L10 -87H378V696Z" />
<glyph unicode="^" horiz-adv-x="475" d="M240 253L292 141H465L310 424H166L10 141H187L240 253Z" />
<glyph unicode="_" horiz-adv-x="456" d="M416 143H30L41 0H426L416 143Z" />
<glyph unicode="`" horiz-adv-x="266" d="M124 588L256 610L190 787H10L124 588Z" />
<glyph unicode="a" horiz-adv-x="509" d="M184 159Q184 176 195 187T225 198H281V152Q265 139 249 132T217 125Q208 125 201 129T189 141T184 159ZM96 325Q124 337 158 345T217 354Q240 354 257 342T279 303L280 298H222Q138 298 85 267T32 156Q32 81 77 35T214
-11Q245 -11 272 5T323 50L375 0H463V300Q463 362 441 407T373 477T262 502Q222 502 183 496T109 479T48 456L96 325Z" />
<glyph unicode="b" d="M152 0L242 91V706L60 695V0H152ZM183 296Q212 326 237 344T286 362Q315 362 334 349T364 311T375 248Q375 211 364 184T335 143T294 129Q268 129 240 143T183 185L132 78Q160 46 188 27T246 -2T306 -11Q383 -11 440 18T530 105T563 249Q563
336 531 392T442 475T314 502Q277 502 242 489T179 456T132 413L183 296Z" />
<glyph unicode="c" horiz-adv-x="457" d="M400 163Q371 148 349 143T303 137Q279 137 257 149T222 184T208 242Q208 277 221 302T257 340T303 354Q329 354 350 349T400 328L451 453Q423 475 392 485T333 499T285 502Q207 502 147 471T54 382T20 242Q20 161 53
105T147 19T285 -11Q305 -11 333 -8T392 5T451 38L400 163Z" />
<glyph unicode="d" d="M341 117L431 0H523V706L341 695V117ZM400 195Q371 165 346 147T297 129Q269 129 249 142T219 180T208 243Q208 281 219 307T248 348T289 362Q315 362 343 348T400 306L451 413Q423 445 395 464T337 493T277 502Q201 502 143 473T53 387T20
242Q20 156 52 100T141 16T269 -11Q307 -11 341 2T404 35T451 78L400 195Z" />
<glyph unicode="e" horiz-adv-x="533" d="M513 197V250Q513 318 488 375T411 467T281 502Q208 502 149 471T55 382T20 242Q20 160 57 104T161 18T310 -11Q351 -11 390 -4T461 15T512 41L461 164Q439 153 406 142T328 131Q297 131 275 139T239 162T218 197H513ZM213
287Q213 306 221 321T245 346T276 356Q299 356 312 345T332 317T339 287H213Z" />
<glyph unicode="f" horiz-adv-x="451" d="M10 322H90V0H272V322H423L406 465H272V490Q272 520 287 537T329 555Q344 555 363 551T399 536L451 660Q439 671 417 680T368 696T317 703Q259 703 207 682T123 618T90 510V465H10V322Z" />
<glyph unicode="g" horiz-adv-x="579" d="M523 484H432L341 370V-15Q341 -44 314 -63T243 -83Q213 -83 176 -77T89 -46L34 -174Q58 -189 89 -200T153 -217T213 -227T256 -230Q337 -230 397 -203T490 -127T523 -16V484ZM400 195Q371 165 346 147T297 129Q269 129
249 142T219 180T208 243Q208 281 219 307T248 348T289 362Q315 362 343 348T400 306L451 413Q423 445 395 464T337 493T277 502Q201 502 143 473T53 387T20 242Q20 156 52 100T141 16T269 -11Q307 -11 341 2T404 35T451 78L400 195Z" />
<glyph unicode="h" horiz-adv-x="620" d="M242 326Q257 333 275 339T311 349T340 354Q371 354 381 337T392 296V0H574V313Q574 367 556 409T499 476T398 501Q359 501 323 491T256 466T200 435L242 326ZM242 0V706L60 695V0H242Z" />
<glyph unicode="i" horiz-adv-x="282" d="M232 0V485H50V0H232ZM140 551Q181 551 210 580T240 649Q240 690 211 719T140 749Q100 749 71 720T42 649Q42 609 71 580T140 551Z" />
<glyph unicode="j" horiz-adv-x="302" d="M156 551Q132 551 110 564T73 600T58 649Q58 690 87 719T156 749Q197 749 226 720T256 649Q256 609 227 580T156 551ZM248 485V2Q248 -50 231 -85T174 -146T62 -194L-10 -63Q26 -50 42 -37T62 -7T66 29V485H248Z" />
<glyph unicode="k" horiz-adv-x="567" d="M242 0V156L275 181L371 0H567L403 277L532 374L423 499L242 346V706L60 695V0H242Z" />
<glyph unicode="l" horiz-adv-x="302" d="M242 0V706L60 695V0H242Z" />
<glyph unicode="m" horiz-adv-x="921" d="M232 0V326Q247 333 265 339T299 349T325 354Q347 354 357 346T369 325T372 296V0H554V313Q554 367 538 409T485 476T383 501Q347 501 312 491T245 466T190 435L158 485H50V0H232ZM553 326Q568 333 586 339T620 349T646
354Q668 354 678 346T690 325T693 296V0H875V313Q875 367 859 409T806 476T704 501Q668 501 633 491T566 466T511 435L553 326Z" />
<glyph unicode="n" horiz-adv-x="610" d="M232 0V326Q247 333 265 339T301 349T330 354Q360 354 371 337T382 296V0H564V313Q564 367 546 409T489 476T388 501Q349 501 313 491T246 466T190 435L158 485H50V0H232Z" />
<glyph unicode="o" horiz-adv-x="590" d="M291 -11Q213 -11 152 17T55 102T20 245Q20 327 57 384T156 471T295 502Q375 502 437 473T534 385T570 240Q570 159 533 103T432 18T291 -11ZM293 137Q322 137 341 148T371 183T382 240Q382 273 372 298T344 339T297 354Q269
354 249 341T219 304T208 245Q208 213 218 189T247 151T293 137Z" />
<glyph unicode="p" horiz-adv-x="579" d="M238 -209V393L147 484H56V-219L238 -209ZM179 296Q208 326 233 344T282 362Q311 362 330 349T360 311T371 248Q371 211 360 184T331 143T290 129Q264 129 236 143T179 185L128 78Q156 46 184 27T242 -2T302 -11Q379 -11
436 18T526 105T559 249Q559 336 527 392T438 475T310 502Q273 502 238 489T175 456T128 413L179 296Z" />
<glyph unicode="q" horiz-adv-x="579" d="M432 484L341 389V-219L523 -208V484H432ZM400 195Q371 165 346 147T297 129Q269 129 249 142T219 180T208 243Q208 281 219 307T248 348T289 362Q315 362 343 348T400 306L451 413Q423 445 395 464T337 493T277 502Q201
502 143 473T53 387T20 242Q20 156 52 100T141 16T269 -11Q307 -11 341 2T404 35T451 78L400 195Z" />
<glyph unicode="r" horiz-adv-x="395" d="M232 0V285Q253 301 279 313T333 332T385 339L348 485Q321 485 291 476T233 453T185 425L141 484H50V0H232Z" />
<glyph unicode="s" horiz-adv-x="451" d="M22 46Q50 24 91 12T170 -6T229 -11Q330 -11 380 32T431 151Q431 196 405 226T340 277T261 312Q239 320 225 328T210 342Q210 352 224 358T260 364Q286 364 318 356T379 335L430 450Q402 472 367 483T300 498T247 502Q146
502 89 459T32 340Q32 296 58 265T125 214T205 179Q219 175 230 170T247 159T253 149Q253 143 248 138T233 130T211 127Q194 127 169 132T119 144T73 161L22 46Z" />
<glyph unicode="t" horiz-adv-x="456" d="M394 465H267V621L85 596V465H10V322H85V182Q85 118 117 75T202 11T312 -11Q336 -11 362 -5T411 12T446 32L394 156Q377 146 358 142T324 137Q298 137 283 154T267 202V322H411L394 465Z" />
<glyph unicode="u" horiz-adv-x="610" d="M378 484V158Q364 152 346 146T310 135T280 130Q250 130 239 148T228 188V484H46V171Q46 117 64 75T122 8T222 -17Q261 -17 297 -7T365 19T420 49L472 -1H560V484H378Z" />
<glyph unicode="v" horiz-adv-x="569" d="M368 0L559 485H378L285 211L188 503L20 455L196 0H368Z" />
<glyph unicode="w" horiz-adv-x="812" d="M641 0L802 485H621L558 210L486 485H315L248 210L178 503L10 455L158 0H324L399 251L475 0H641Z" />
<glyph unicode="x" horiz-adv-x="557" d="M215 0L278 104L343 0H547L382 231L547 485H346L272 368L187 500L11 458L168 241L10 0H215Z" />
<glyph unicode="y" horiz-adv-x="561" d="M180 -2Q175 -16 154 -30T107 -56T56 -78L117 -219Q165 -208 210 -185T289 -129T338 -57L551 485H370L277 211L178 503L10 455L184 9L180 -2Z" />
<glyph unicode="z" horiz-adv-x="452" d="M417 485H30L47 342H207L8 94L30 0H444L427 143H230L426 384L417 485Z" />
<glyph unicode="{" horiz-adv-x="349" d="M252 310Q262 317 274 330T286 372Q286 395 281 407T268 430Q262 441 257 452T251 482Q251 496 259 506T289 517H326L339 659H226Q152 659 118 625T84 533Q84 517 88 502T98 473Q105 455 111 439T117 411Q117 394 104
384T75 373H30V247H75Q91 247 104 237T117 209Q117 196 112 182T100 151Q94 136 89 120T84 87Q84 30 118 -4T226 -39H339L326 103H289Q267 103 259 113T251 138Q251 158 256 170T269 193Q275 204 280 216T286 248Q286 276 274 289T252 310Z" />
<glyph unicode="|" horiz-adv-x="342" d="M80 713V0L262 -16V697L80 713Z" />
<glyph unicode="}" horiz-adv-x="349" d="M97 310Q87 303 75 290T63 248Q63 228 68 216T80 194Q87 184 92 172T98 138Q98 124 90 114T60 103H23L10 -39H123Q197 -39 231 -5T265 87Q265 104 260 122T248 158Q242 173 237 186T232 209Q232 226 245 236T274 247H319V373H274Q258
373 245 383T232 411Q232 424 238 440T252 474Q257 488 261 503T265 533Q265 590 231 624T123 659H10L23 517H60Q82 517 90 507T98 482Q98 463 93 452T82 430Q75 419 69 407T63 372Q63 344 75 331T97 310Z" />
<glyph unicode="~" horiz-adv-x="565" d="M30 175H173Q173 191 186 207T218 224Q243 224 263 219T304 208Q327 201 349 196T399 190Q450 190 479 217T522 292T535 400H409Q409 384 398 368T367 351Q345 351 322 356T276 369Q255 375 234 380T190 385Q138 385 102
358T48 283T30 175Z" />
<glyph unicode="&#xa0;" horiz-adv-x="220" />
<glyph unicode="&#xa1;" horiz-adv-x="243" d="M121 531Q160 531 186 557T213 623Q213 662 187 688T121 714Q83 714 57 688T30 623Q30 584 56 558T121 531ZM192 466L50 506L30 0H212L192 466Z" />
<glyph unicode="&#xa2;" horiz-adv-x="457" d="M362 460V631L212 618V456L362 460ZM362 51L212 54V-125H362V51ZM400 163Q371 148 349 143T303 137Q279 137 257 149T222 184T208 242Q208 277 221 302T257 340T303 354Q329 354 350 349T400 328L451 453Q423 475
392 485T333 499T285 502Q207 502 147 471T54 382T20 242Q20 161 53 105T147 19T285 -11Q305 -11 333 -8T392 5T451 38L400 163Z" />
<glyph unicode="&#xa3;" horiz-adv-x="522" d="M49 0H512L495 143H298Q300 153 301 164T303 188V268H453L436 411H303V471Q303 501 320 518T370 536Q383 536 403 532T440 517L492 641Q480 652 458 661T409 677T358 684Q296 684 242 663T155 599T121 491V411H40V268H121V208Q121
179 104 162T39 143L49 0Z" />
<glyph unicode="&#xa4;" horiz-adv-x="813" d="M167 -103L279 15Q306 2 340 -4T407 -12Q440 -11 473 -4T534 16L641 -98L783 20L654 136Q666 161 673 191T680 252Q680 283 673 312T655 366L771 480L646 604L534 486Q507 499 473 505T406 512Q373 512 340 505T279
485L172 599L30 481L159 365Q147 340 140 310T133 249Q133 218 140 189T158 135L42 21L167 -103ZM501 251Q501 226 489 205T456 172T407 159Q381 159 360 171T326 203T312 250Q313 276 324 296T357 329T406 342Q433 342 454 330T488 298T501 251Z" />
<glyph unicode="&#xa5;" horiz-adv-x="654" d="M98 316L108 200H556L546 316H98ZM98 162L108 46H556L546 162H98ZM408 0V266L644 680H457L316 435L184 694L10 646L226 268V0H408Z" />
<glyph unicode="&#xa6;" horiz-adv-x="342" d="M80 713V410L262 394V697L80 713ZM80 303V0L262 -16V287L80 303Z" />
<glyph unicode="&#xa7;" horiz-adv-x="710" d="M419 74Q503 74 563 100T657 171T690 274Q690 316 672 349T623 411T557 462T484 506Q457 522 434 533T396 557T381 583Q381 602 399 616T448 631Q471 631 490 629T532 620T592 601L646 724Q606 751 552 765T446 780Q369
780 312 755T225 685T193 585Q193 542 212 508T262 446T328 397T397 355Q423 340 447 327T486 301T502 276Q502 257 480 240T414 223L419 74ZM33 -64Q53 -76 80 -86T138 -103T199 -115T256 -119Q340 -119 401 -93T494 -22T527 81Q527 123 509 156T460 218T394 269T321
313Q294 329 271 340T233 364T218 390Q218 409 236 423T285 438L283 587Q206 587 149 562T62 492T30 392Q30 349 49 315T99 253T165 204T234 162Q260 147 284 134T323 108T339 83Q339 71 329 59T300 38T251 30Q227 30 197 36T139 53T93 73L33 -64Z" />
<glyph unicode="&#xa8;" horiz-adv-x="398" d="M93 603Q129 603 153 627T177 686Q177 720 153 744T93 769Q60 769 35 745T10 686Q10 651 35 627T93 603ZM304 603Q340 603 364 627T388 686Q388 720 364 744T304 769Q271 769 246 745T221 686Q221 651 246 627T304 603Z" />
<glyph unicode="&#xa9;" horiz-adv-x="825" d="M805 336Q805 416 777 485T697 606T573 687T412 716Q325 716 253 687T129 606T49 485T20 336Q20 258 48 190T129 69T253 -12T412 -42Q501 -42 573 -13T697 69T777 189T805 336ZM155 337Q155 410 187 467T277 559T412
593Q498 593 554 559T639 468T668 337Q668 265 637 208T548 116T412 82Q335 82 277 116T187 207T155 337ZM424 115Q442 115 466 117T518 129T569 158L525 267Q500 254 481 249T440 244Q408 244 383 267T357 336Q357 367 369 388T400 422T440 434Q456 434 469 432T495
425T525 411L569 520Q545 540 518 549T467 560T424 563Q356 563 304 536T222 458T193 336Q193 266 222 217T303 141T424 115Z" />
<glyph unicode="&#xaa;" horiz-adv-x="347" d="M138 461Q138 468 144 471T161 475H197V470Q190 461 180 456T158 451Q149 451 144 454T138 461ZM66 559Q85 567 109 573T152 580Q164 580 174 577T188 566L189 564H155Q95 564 58 538T20 456Q20 402 52 370T150 337Q179
337 204 346T246 371L269 344H327V558Q327 602 311 634T263 684T184 702Q156 702 128 698T75 686T31 669L66 559Z" />
<glyph unicode="&#xab;" horiz-adv-x="421" d="M211 224L368 73L401 179L335 247L401 314L368 421L211 269V224ZM30 224L187 73L220 179L154 247L220 314L187 421L30 269V224Z" />
<glyph unicode="&#xac;" horiz-adv-x="554" d="M506 424H10L23 281H356V117L524 110V357L506 424Z" />
<glyph unicode="&#xad;" horiz-adv-x="120" />
<glyph unicode="&#xae;" horiz-adv-x="723" d="M703 475Q703 571 662 648T544 770T361 815Q257 815 180 770T62 648T20 475Q20 381 61 305T180 183T361 138Q467 138 543 183T661 304T703 475ZM131 476Q131 544 158 596T237 679T361 710Q433 710 484 680T564 597T592
476Q592 410 564 357T485 274T361 242Q289 243 238 273T159 357T131 476ZM350 574Q366 574 377 571T395 559T401 534Q401 520 395 511T377 497T350 492H319V574H350ZM517 300L459 436Q484 451 500 475T517 534Q517 577 495 603T437 643T363 656H214V300H319V412H337Q342
412 346 412T355 412L398 300H517Z" />
<glyph unicode="&#xaf;" horiz-adv-x="310" d="M10 613H300L290 756H10V613Z" />
<glyph unicode="&#xb0;" horiz-adv-x="295" d="M148 720Q110 720 79 702T29 655T10 588Q10 551 28 521T78 474T148 457Q184 457 215 474T266 521T285 588Q285 625 266 654T216 702T148 720ZM175 586Q175 576 168 568T149 560Q139 560 131 569T123 588Q123 598
131 606T149 614Q160 614 167 606T175 586Z" />
<glyph unicode="&#xb1;" horiz-adv-x="545" d="M505 415H348V570H200V415H32L43 292H200V157L348 149V292H515L505 415ZM503 123H30L41 0H513L503 123Z" />
<glyph unicode="&#xb2;" horiz-adv-x="384" d="M180 771Q145 771 116 763T62 743T15 716L73 626Q92 636 108 643T140 655T174 660Q192 660 203 656T220 646T226 630Q225 614 211 592T163 540L35 427V337H364L352 444H229L252 465Q303 511 325 552T347 643Q347
674 331 703T278 751T180 771Z" />
<glyph unicode="&#xb3;" horiz-adv-x="408" d="M191 771Q147 771 102 759T16 716L81 623Q107 641 131 650T177 660Q206 660 220 650T234 626Q234 614 226 605T201 590T163 585H102L113 477H190Q212 477 227 466T242 432Q242 420 234 410T213 395T183 389Q157 389
131 398T73 427L0 336Q43 308 92 294T182 279Q242 279 287 298T358 350T383 428Q383 450 374 472T351 512T318 541Q332 548 344 564T365 600T374 638Q374 698 324 734T191 771Z" />
<glyph unicode="&#xb4;" horiz-adv-x="266" d="M142 588L256 787H76L10 610L142 588Z" />
<glyph unicode="&#xb5;" horiz-adv-x="620" d="M238 -209V393L56 389V-219L238 -209ZM388 484V158Q374 152 356 146T320 135T290 130Q260 130 249 148T238 188V484H56V171Q56 117 74 75T132 8T232 -17Q271 -17 307 -7T375 19T430 49L462 -1H570V484H388Z" />
<glyph unicode="&#xb6;" horiz-adv-x="1053" d="M534 0V537H713V0H895V537H1033V680H315Q234 680 167 656T60 579T20 439Q20 375 45 328T113 251T211 206T328 191H353V0H534Z" />
<glyph unicode="&#xb7;" horiz-adv-x="243" d="M122 172Q160 172 186 198T213 263Q213 302 187 328T122 355Q83 355 57 329T30 263Q30 224 56 198T122 172Z" />
<glyph unicode="&#xb8;" horiz-adv-x="277" d="M50 -94Q70 -96 89 -100T122 -111T135 -132Q135 -141 126 -145T104 -150Q90 -150 74 -145T48 -135L10 -221Q35 -240 66 -251T126 -262Q162 -262 194 -248T246 -207T267 -142Q267 -125 260 -104T239 -65T199 -39L219
13H93L50 -94Z" />
<glyph unicode="&#xb9;" horiz-adv-x="336" d="M276 337V764H185L10 683L45 566L139 608V337H276Z" />
<glyph unicode="&#xba;" horiz-adv-x="402" d="M200 702Q145 702 105 680T42 616T20 519Q20 463 40 422T100 359T195 337Q252 337 294 359T359 421T382 517Q382 573 361 614T299 679T200 702ZM202 578Q226 578 235 562T244 517Q244 497 239 484T224 465T198 458Q176
458 167 473T158 519Q158 540 163 553T179 572T202 578Z" />
<glyph unicode="&#xbb;" horiz-adv-x="421" d="M210 270L53 421L20 315L86 247L20 180L53 73L210 225V270ZM391 270L234 421L201 315L267 247L201 180L234 73L391 225V270Z" />
<glyph unicode="&#xbc;" horiz-adv-x="987" d="M276 337V764H185L10 683L45 566L139 608V337H276ZM967 36H889V326H784L516 28L532 -75H748V-166H889V-75H960L967 36ZM748 113V36H682L748 113ZM665 700L69 -134H236L833 700H665Z" />
<glyph unicode="&#xbd;" horiz-adv-x="980" d="M276 337V764H185L10 683L45 566L139 608V337H276ZM776 325Q741 325 712 317T658 297T611 270L669 180Q688 190 704 197T736 209T770 214Q788 214 799 210T816 200T822 184Q821 168 807 146T759 94L631 -19V-109H960L948
-2H825L848 19Q899 65 921 106T943 197Q943 228 927 257T874 305T776 325ZM665 700L69 -134H236L833 700H665Z" />
<glyph unicode="&#xbe;" horiz-adv-x="993" d="M191 771Q147 771 102 759T16 716L81 623Q107 641 131 650T177 660Q206 660 220 650T234 626Q234 614 226 605T201 590T163 585H102L113 477H190Q212 477 227 466T242 432Q242 420 234 410T213 395T183 389Q157 389
131 398T73 427L0 336Q43 308 92 294T182 279Q242 279 287 298T358 350T383 428Q383 450 374 472T351 512T318 541Q332 548 344 564T365 600T374 638Q374 698 324 734T191 771ZM677 700L81 -134H248L845 700H677ZM973 36H895V326H790L522 28L538 -75H754V-166H895V-75H966L973
36ZM754 113V36H688L754 113Z" />
<glyph unicode="&#xbf;" horiz-adv-x="467" d="M300 481Q339 481 365 507T392 573Q392 612 366 638T300 664Q262 664 236 638T209 573Q209 534 235 508T300 481ZM266 -37Q310 -37 358 -26T457 15L434 164Q374 130 334 121T269 111Q247 111 233 122T218 152Q218
179 260 210T369 262L362 421L219 460L207 345Q144 323 105 294T48 231T30 155Q30 98 60 55T143 -13T266 -37Z" />
<glyph unicode="&#xc0;" horiz-adv-x="711" d="M421 277H288L353 462L421 277ZM265 680L10 0H191L238 134H473L522 -10L701 8L447 680H265ZM320 733L452 755L386 932H206L320 733Z" />
<glyph unicode="&#xc1;" horiz-adv-x="711" d="M421 277H288L353 462L421 277ZM265 680L10 0H191L238 134H473L522 -10L701 8L447 680H265ZM415 733L529 932H349L283 755L415 733Z" />
<glyph unicode="&#xc2;" horiz-adv-x="711" d="M421 277H288L353 462L421 277ZM265 680L10 0H191L238 134H473L522 -10L701 8L447 680H265ZM361 801L413 739L586 759L412 938H305L131 759L308 739L361 801Z" />
<glyph unicode="&#xc3;" horiz-adv-x="711" d="M421 277H288L353 462L421 277ZM265 680L10 0H191L238 134H473L522 -10L701 8L447 680H265ZM418 905Q418 892 411 884T396 876Q382 876 372 880T351 891Q340 898 325 904T290 910Q260 910 232 895T187 845T169 750H295Q295
759 303 769T323 779Q335 779 346 773T368 761Q378 756 391 751T421 745Q452 745 479 760T523 810T540 905H418Z" />
<glyph unicode="&#xc4;" horiz-adv-x="711" d="M421 277H288L353 462L421 277ZM265 680L10 0H191L238 134H473L522 -10L701 8L447 680H265ZM255 753Q291 753 315 777T339 836Q339 870 315 894T255 919Q222 919 197 895T172 836Q172 801 197 777T255 753ZM466 753Q502
753 526 777T550 836Q550 870 526 894T466 919Q433 919 408 895T383 836Q383 801 408 777T466 753Z" />
<glyph unicode="&#xc5;" horiz-adv-x="711" d="M421 277H288L353 462L421 277ZM265 680L10 0H191L238 134H473L522 -10L701 8L447 680H265ZM358 976Q325 976 297 961T252 919T235 859Q235 808 271 776T358 744Q391 744 419 758T464 799T481 859Q481 892 464 918T419
960T358 976ZM360 829Q348 829 339 838T330 859Q330 871 339 879T360 887Q372 887 380 879T388 859Q388 847 380 838T360 829Z" />
<glyph unicode="&#xc6;" horiz-adv-x="987" d="M469 0H967L950 143H651V270H877L860 413H651V537H937L920 680H469L10 13L185 -13L277 128H469V0ZM469 399V271H378L469 399Z" />
<glyph unicode="&#xc7;" horiz-adv-x="596" d="M579 637Q553 655 519 667T449 686T379 693Q304 693 240 667T129 594T56 481T30 337Q30 260 54 196T123 85T234 13T383 -13Q418 -13 454 -7T525 10T586 37L517 173Q491 157 458 147T388 136Q356 136 326 149T271
189T233 252T218 338Q218 400 242 446T303 518T381 544Q404 544 423 542T465 533T525 514L579 637ZM285 -94Q305 -96 324 -100T357 -111T370 -132Q370 -141 361 -145T339 -150Q325 -150 309 -145T283 -135L245 -221Q270 -240 301 -251T361 -262Q397 -262 429 -248T481
-207T502 -142Q502 -125 495 -104T474 -65T434 -39L454 13H328L285 -94Z" />
<glyph unicode="&#xc8;" horiz-adv-x="598" d="M578 0L561 143H262V270H488L471 413H262V537H548L531 680H80V0H578ZM296 733L428 755L362 932H182L296 733Z" />
<glyph unicode="&#xc9;" horiz-adv-x="598" d="M578 0L561 143H262V270H488L471 413H262V537H548L531 680H80V0H578ZM391 733L505 932H325L259 755L391 733Z" />
<glyph unicode="&#xca;" horiz-adv-x="598" d="M578 0L561 143H262V270H488L471 413H262V537H548L531 680H80V0H578ZM337 801L389 739L562 759L388 938H281L107 759L284 739L337 801Z" />
<glyph unicode="&#xcb;" horiz-adv-x="598" d="M578 0L561 143H262V270H488L471 413H262V537H548L531 680H80V0H578ZM231 753Q267 753 291 777T315 836Q315 870 291 894T231 919Q198 919 173 895T148 836Q148 801 173 777T231 753ZM442 753Q478 753 502 777T526
836Q526 870 502 894T442 919Q409 919 384 895T359 836Q359 801 384 777T442 753Z" />
<glyph unicode="&#xcc;" horiz-adv-x="342" d="M262 0V680H80V0H262ZM135 733L267 755L201 932H21L135 733Z" />
<glyph unicode="&#xcd;" horiz-adv-x="342" d="M262 0V680H80V0H262ZM230 733L344 932H164L98 755L230 733Z" />
<glyph unicode="&#xce;" horiz-adv-x="342" d="M262 0V680H80V0H262ZM432 801L484 739L657 759L483 938H376L202 759L379 739L432 801Z" />
<glyph unicode="&#xcf;" horiz-adv-x="342" d="M262 0V680H80V0H262ZM326 753Q362 753 386 777T410 836Q410 870 386 894T326 919Q293 919 268 895T243 836Q243 801 268 777T326 753ZM537 753Q573 753 597 777T621 836Q621 870 597 894T537 919Q504 919 479 895T454
836Q454 801 479 777T537 753Z" />
<glyph unicode="&#xd0;" horiz-adv-x="739" d="M386 270L369 413H0L17 270H386ZM384 0Q480 0 553 42T667 161T709 344Q709 441 673 516T565 636T388 680H80V0H384ZM379 537Q425 537 456 512T504 444T521 344Q521 277 501 232T448 165T372 143H262V537H379Z" />
<glyph unicode="&#xd1;" horiz-adv-x="773" d="M262 0V358L313 288L523 0H693V680H511L514 311L462 380L249 680H80V0H262ZM440 905Q440 892 433 884T418 876Q404 876 394 880T373 891Q362 898 347 904T312 910Q282 910 254 895T209 845T191 750H317Q317 759 325
769T345 779Q357 779 368 773T390 761Q400 756 413 751T443 745Q474 745 501 760T545 810T562 905H440Z" />
<glyph unicode="&#xd2;" horiz-adv-x="763" d="M381 -14Q273 -14 194 33T73 160T30 337Q30 442 75 522T199 648T381 694Q492 694 570 647T691 521T733 344Q733 239 689 158T565 32T381 -14ZM380 138Q427 138 464 161T524 230T546 344Q546 401 527 445T471 516T383
542Q338 542 300 517T240 446T217 338Q217 281 236 236T292 164T380 138ZM341 733L473 755L407 932H227L341 733Z" />
<glyph unicode="&#xd3;" horiz-adv-x="763" d="M381 -14Q273 -14 194 33T73 160T30 337Q30 442 75 522T199 648T381 694Q492 694 570 647T691 521T733 344Q733 239 689 158T565 32T381 -14ZM380 138Q427 138 464 161T524 230T546 344Q546 401 527 445T471 516T383
542Q338 542 300 517T240 446T217 338Q217 281 236 236T292 164T380 138ZM436 733L550 932H370L304 755L436 733Z" />
<glyph unicode="&#xd4;" horiz-adv-x="763" d="M381 -14Q273 -14 194 33T73 160T30 337Q30 442 75 522T199 648T381 694Q492 694 570 647T691 521T733 344Q733 239 689 158T565 32T381 -14ZM380 138Q427 138 464 161T524 230T546 344Q546 401 527 445T471 516T383
542Q338 542 300 517T240 446T217 338Q217 281 236 236T292 164T380 138ZM382 801L434 739L607 759L433 938H326L152 759L329 739L382 801Z" />
<glyph unicode="&#xd5;" horiz-adv-x="763" d="M381 -14Q273 -14 194 33T73 160T30 337Q30 442 75 522T199 648T381 694Q492 694 570 647T691 521T733 344Q733 239 689 158T565 32T381 -14ZM380 138Q427 138 464 161T524 230T546 344Q546 401 527 445T471 516T383
542Q338 542 300 517T240 446T217 338Q217 281 236 236T292 164T380 138ZM439 905Q439 892 432 884T417 876Q403 876 393 880T372 891Q361 898 346 904T311 910Q281 910 253 895T208 845T190 750H316Q316 759 324 769T344 779Q356 779 367 773T389 761Q399 756
412 751T442 745Q473 745 500 760T544 810T561 905H439Z" />
<glyph unicode="&#xd6;" horiz-adv-x="763" d="M381 -14Q273 -14 194 33T73 160T30 337Q30 442 75 522T199 648T381 694Q492 694 570 647T691 521T733 344Q733 239 689 158T565 32T381 -14ZM380 138Q427 138 464 161T524 230T546 344Q546 401 527 445T471 516T383
542Q338 542 300 517T240 446T217 338Q217 281 236 236T292 164T380 138ZM276 753Q312 753 336 777T360 836Q360 870 336 894T276 919Q243 919 218 895T193 836Q193 801 218 777T276 753ZM487 753Q523 753 547 777T571 836Q571 870 547 894T487 919Q454 919 429
895T404 836Q404 801 429 777T487 753Z" />
<glyph unicode="&#xd7;" horiz-adv-x="607" d="M385 250L560 29H379L303 135L215 29H30L222 263L47 484H228L303 378L392 484H577L385 250Z" />
<glyph unicode="&#xd8;" horiz-adv-x="763" d="M381 -14Q273 -14 194 33T73 160T30 337Q30 442 75 522T199 648T381 694Q492 694 570 647T691 521T733 344Q733 239 689 158T565 32T381 -14ZM380 138Q427 138 464 161T524 230T546 344Q546 401 527 445T471 516T383
542Q338 542 300 517T240 446T217 338Q217 281 236 236T292 164T380 138ZM341 77L233 140L421 596L540 542L341 77Z" />
<glyph unicode="&#xd9;" horiz-adv-x="750" d="M252 680H70V260Q70 172 108 111T216 18T375 -14Q466 -14 534 17T641 110T680 260V680H498V269Q498 227 482 198T439 153T375 138Q339 138 311 153T268 197T252 269V680ZM335 733L467 755L401 932H221L335 733Z" />
<glyph unicode="&#xda;" horiz-adv-x="750" d="M252 680H70V260Q70 172 108 111T216 18T375 -14Q466 -14 534 17T641 110T680 260V680H498V269Q498 227 482 198T439 153T375 138Q339 138 311 153T268 197T252 269V680ZM430 733L544 932H364L298 755L430 733Z" />
<glyph unicode="&#xdb;" horiz-adv-x="750" d="M252 680H70V260Q70 172 108 111T216 18T375 -14Q466 -14 534 17T641 110T680 260V680H498V269Q498 227 482 198T439 153T375 138Q339 138 311 153T268 197T252 269V680ZM376 801L428 739L601 759L427 938H320L146
759L323 739L376 801Z" />
<glyph unicode="&#xdc;" horiz-adv-x="750" d="M252 680H70V260Q70 172 108 111T216 18T375 -14Q466 -14 534 17T641 110T680 260V680H498V269Q498 227 482 198T439 153T375 138Q339 138 311 153T268 197T252 269V680ZM270 753Q306 753 330 777T354 836Q354 870
330 894T270 919Q237 919 212 895T187 836Q187 801 212 777T270 753ZM481 753Q517 753 541 777T565 836Q565 870 541 894T481 919Q448 919 423 895T398 836Q398 801 423 777T481 753Z" />
<glyph unicode="&#xdd;" horiz-adv-x="654" d="M408 0V266L644 680H457L316 435L184 694L10 646L226 268V0H408ZM371 733L485 932H305L239 755L371 733Z" />
<glyph unicode="&#xde;" horiz-adv-x="666" d="M366 600Q442 600 505 573T607 492T646 355Q646 294 622 249T557 175T465 132T358 118H262V0H80V680H262V600H366ZM362 261Q390 261 411 273T445 307T458 355Q458 385 446 408T413 444T360 457H262V261H362Z" />
<glyph unicode="&#xdf;" horiz-adv-x="660" d="M60 0H242V457Q242 488 255 508T289 538T329 549Q368 549 391 530T414 485Q414 461 388 439T327 416H300V286H379Q405 286 425 268T445 214Q445 194 435 179T408 157T371 149H295V0H388Q460 0 514 24T599 94T630
200Q630 235 617 268T581 327T529 364Q554 381 568 405T589 455T596 503Q596 564 561 608T464 677T323 702Q243 702 184 670T93 582T60 452V0Z" />
<glyph unicode="&#xe0;" horiz-adv-x="509" d="M184 159Q184 176 195 187T225 198H281V152Q265 139 249 132T217 125Q208 125 201 129T189 141T184 159ZM96 325Q124 337 158 345T217 354Q240 354 257 342T279 303L280 298H222Q138 298 85 267T32 156Q32 81 77
35T214 -11Q245 -11 272 5T323 50L375 0H463V300Q463 362 441 407T373 477T262 502Q222 502 183 496T109 479T48 456L96 325ZM217 588L349 610L283 787H103L217 588Z" />
<glyph unicode="&#xe1;" horiz-adv-x="509" d="M184 159Q184 176 195 187T225 198H281V152Q265 139 249 132T217 125Q208 125 201 129T189 141T184 159ZM96 325Q124 337 158 345T217 354Q240 354 257 342T279 303L280 298H222Q138 298 85 267T32 156Q32 81 77
35T214 -11Q245 -11 272 5T323 50L375 0H463V300Q463 362 441 407T373 477T262 502Q222 502 183 496T109 479T48 456L96 325ZM301 588L415 787H235L169 610L301 588Z" />
<glyph unicode="&#xe2;" horiz-adv-x="509" d="M184 159Q184 176 195 187T225 198H281V152Q265 139 249 132T217 125Q208 125 201 129T189 141T184 159ZM96 325Q124 337 158 345T217 354Q240 354 257 342T279 303L280 298H222Q138 298 85 267T32 156Q32 81 77
35T214 -11Q245 -11 272 5T323 50L375 0H463V300Q463 362 441 407T373 477T262 502Q222 502 183 496T109 479T48 456L96 325ZM261 650L313 588L486 608L312 787H205L31 608L208 588L261 650Z" />
<glyph unicode="&#xe3;" horiz-adv-x="509" d="M184 159Q184 176 195 187T225 198H281V152Q265 139 249 132T217 125Q208 125 201 129T189 141T184 159ZM96 325Q124 337 158 345T217 354Q240 354 257 342T279 303L280 298H222Q138 298 85 267T32 156Q32 81 77
35T214 -11Q245 -11 272 5T323 50L375 0H463V300Q463 362 441 407T373 477T262 502Q222 502 183 496T109 479T48 456L96 325ZM313 755Q313 742 306 734T291 726Q278 726 268 730T248 740Q236 747 222 753T188 760Q158 760 130 745T83 695T64 600H190Q190 609 198
619T217 629Q231 629 241 624T262 611Q272 605 285 600T315 595Q346 595 373 610T417 660T435 755H313Z" />
<glyph unicode="&#xe4;" horiz-adv-x="509" d="M184 159Q184 176 195 187T225 198H281V152Q265 139 249 132T217 125Q208 125 201 129T189 141T184 159ZM96 325Q124 337 158 345T217 354Q240 354 257 342T279 303L280 298H222Q138 298 85 267T32 156Q32 81 77
35T214 -11Q245 -11 272 5T323 50L375 0H463V300Q463 362 441 407T373 477T262 502Q222 502 183 496T109 479T48 456L96 325ZM151 603Q187 603 211 627T235 686Q235 720 211 744T151 769Q118 769 93 745T68 686Q68 651 93 627T151 603ZM362 603Q398 603 422 627T446
686Q446 720 422 744T362 769Q329 769 304 745T279 686Q279 651 304 627T362 603Z" />
<glyph unicode="&#xe5;" horiz-adv-x="509" d="M184 159Q184 176 195 187T225 198H281V152Q265 139 249 132T217 125Q208 125 201 129T189 141T184 159ZM96 325Q124 337 158 345T217 354Q240 354 257 342T279 303L280 298H222Q138 298 85 267T32 156Q32 81 77
35T214 -11Q245 -11 272 5T323 50L375 0H463V300Q463 362 441 407T373 477T262 502Q222 502 183 496T109 479T48 456L96 325ZM260 826Q227 826 199 811T154 769T137 709Q137 658 173 626T260 594Q293 594 321 608T366 649T383 709Q383 742 366 768T321 810T260
826ZM262 679Q250 679 241 688T232 709Q232 721 241 729T262 737Q274 737 282 729T290 709Q290 697 282 688T262 679Z" />
<glyph unicode="&#xe6;" horiz-adv-x="793" d="M773 197H478Q485 177 499 162T535 139T588 131Q632 131 665 142T721 164L772 41Q753 27 721 15T650 -4T570 -11Q510 -11 459 4T370 48Q356 34 336 21T286 -2T214 -11Q122 -11 77 35T32 156Q32 235 85 266T222 298H280L279
304Q275 330 258 342T217 354Q192 354 158 346T96 325L48 456Q74 468 108 478T182 495T262 502Q303 502 336 492T394 463Q426 482 463 492T541 502Q619 502 670 468T747 376T773 250V197ZM473 287H599Q599 301 593 317T573 344T536 356Q520 356 505 347T482 322T473
287ZM283 198H225Q213 198 204 193T190 180T184 159Q184 149 188 142T200 130T217 125Q235 125 248 129T273 139T294 153Q290 164 288 175T283 198Z" />
<glyph unicode="&#xe7;" horiz-adv-x="457" d="M400 163Q371 148 349 143T303 137Q279 137 257 149T222 184T208 242Q208 277 221 302T257 340T303 354Q329 354 350 349T400 328L451 453Q423 475 392 485T333 499T285 502Q207 502 147 471T54 382T20 242Q20 161
53 105T147 19T285 -11Q305 -11 333 -8T392 5T451 38L400 163ZM185 -94Q205 -96 224 -100T257 -111T270 -132Q270 -141 261 -145T239 -150Q225 -150 209 -145T183 -135L145 -221Q170 -240 201 -251T261 -262Q297 -262 329 -248T381 -207T402 -142Q402 -125 395
-104T374 -65T334 -39L354 13H228L185 -94Z" />
<glyph unicode="&#xe8;" horiz-adv-x="533" d="M513 197V250Q513 318 488 375T411 467T281 502Q208 502 149 471T55 382T20 242Q20 160 57 104T161 18T310 -11Q351 -11 390 -4T461 15T512 41L461 164Q439 153 406 142T328 131Q297 131 275 139T239 162T218 197H513ZM213
287Q213 306 221 321T245 346T276 356Q299 356 312 345T332 317T339 287H213ZM238 588L370 610L304 787H124L238 588Z" />
<glyph unicode="&#xe9;" horiz-adv-x="533" d="M513 197V250Q513 318 488 375T411 467T281 502Q208 502 149 471T55 382T20 242Q20 160 57 104T161 18T310 -11Q351 -11 390 -4T461 15T512 41L461 164Q439 153 406 142T328 131Q297 131 275 139T239 162T218 197H513ZM213
287Q213 306 221 321T245 346T276 356Q299 356 312 345T332 317T339 287H213ZM322 588L436 787H256L190 610L322 588Z" />
<glyph unicode="&#xea;" horiz-adv-x="533" d="M513 197V250Q513 318 488 375T411 467T281 502Q208 502 149 471T55 382T20 242Q20 160 57 104T161 18T310 -11Q351 -11 390 -4T461 15T512 41L461 164Q439 153 406 142T328 131Q297 131 275 139T239 162T218 197H513ZM213
287Q213 306 221 321T245 346T276 356Q299 356 312 345T332 317T339 287H213ZM282 650L334 588L507 608L333 787H226L52 608L229 588L282 650Z" />
<glyph unicode="&#xeb;" horiz-adv-x="533" d="M513 197V250Q513 318 488 375T411 467T281 502Q208 502 149 471T55 382T20 242Q20 160 57 104T161 18T310 -11Q351 -11 390 -4T461 15T512 41L461 164Q439 153 406 142T328 131Q297 131 275 139T239 162T218 197H513ZM213
287Q213 306 221 321T245 346T276 356Q299 356 312 345T332 317T339 287H213ZM172 603Q208 603 232 627T256 686Q256 720 232 744T172 769Q139 769 114 745T89 686Q89 651 114 627T172 603ZM383 603Q419 603 443 627T467 686Q467 720 443 744T383 769Q350 769 325
745T300 686Q300 651 325 627T383 603Z" />
<glyph unicode="&#xec;" horiz-adv-x="282" d="M232 0V485H50V0H232ZM355 588L487 610L421 787H241L355 588Z" />
<glyph unicode="&#xed;" horiz-adv-x="282" d="M232 0V485H50V0H232ZM183 588L297 787H117L51 610L183 588Z" />
<glyph unicode="&#xee;" horiz-adv-x="282" d="M232 0V485H50V0H232ZM399 650L451 588L624 608L450 787H343L169 608L346 588L399 650Z" />
<glyph unicode="&#xef;" horiz-adv-x="282" d="M232 0V485H50V0H232ZM289 603Q325 603 349 627T373 686Q373 720 349 744T289 769Q256 769 231 745T206 686Q206 651 231 627T289 603ZM500 603Q536 603 560 627T584 686Q584 720 560 744T500 769Q467 769 442 745T417
686Q417 651 442 627T500 603Z" />
<glyph unicode="&#xf0;" horiz-adv-x="590" d="M570 254Q570 332 541 410T453 556T310 674T114 750L53 638Q141 615 203 576T305 485T363 371T382 240Q382 206 372 183T342 149T293 137Q266 137 247 150T218 188T208 245Q208 279 218 303T249 341T297 354Q314
354 338 348T389 328T438 288L517 391Q493 422 450 447T359 487T275 502Q209 502 151 472T57 384T20 245Q20 159 58 102T160 17T302 -11Q380 -11 440 21T535 113T570 254ZM106 474L466 642L412 752L56 580L106 474Z" />
<glyph unicode="&#xf1;" horiz-adv-x="610" d="M232 0V326Q247 333 265 339T301 349T330 354Q360 354 371 337T382 296V0H564V313Q564 367 546 409T489 476T388 501Q349 501 313 491T246 466T190 435L158 485H50V0H232ZM408 755Q408 742 401 734T386 726Q373 726
363 730T343 740Q331 747 317 753T283 760Q253 760 225 745T178 695T159 600H285Q285 609 293 619T312 629Q326 629 336 624T357 611Q367 605 380 600T410 595Q441 595 468 610T512 660T530 755H408Z" />
<glyph unicode="&#xf2;" horiz-adv-x="590" d="M291 -11Q213 -11 152 17T55 102T20 245Q20 327 57 384T156 471T295 502Q375 502 437 473T534 385T570 240Q570 159 533 103T432 18T291 -11ZM293 137Q322 137 341 148T371 183T382 240Q382 273 372 298T344 339T297
354Q269 354 249 341T219 304T208 245Q208 213 218 189T247 151T293 137ZM251 588L383 610L317 787H137L251 588Z" />
<glyph unicode="&#xf3;" horiz-adv-x="590" d="M291 -11Q213 -11 152 17T55 102T20 245Q20 327 57 384T156 471T295 502Q375 502 437 473T534 385T570 240Q570 159 533 103T432 18T291 -11ZM293 137Q322 137 341 148T371 183T382 240Q382 273 372 298T344 339T297
354Q269 354 249 341T219 304T208 245Q208 213 218 189T247 151T293 137ZM335 588L449 787H269L203 610L335 588Z" />
<glyph unicode="&#xf4;" horiz-adv-x="590" d="M291 -11Q213 -11 152 17T55 102T20 245Q20 327 57 384T156 471T295 502Q375 502 437 473T534 385T570 240Q570 159 533 103T432 18T291 -11ZM293 137Q322 137 341 148T371 183T382 240Q382 273 372 298T344 339T297
354Q269 354 249 341T219 304T208 245Q208 213 218 189T247 151T293 137ZM295 650L347 588L520 608L346 787H239L65 608L242 588L295 650Z" />
<glyph unicode="&#xf5;" horiz-adv-x="590" d="M291 -11Q213 -11 152 17T55 102T20 245Q20 327 57 384T156 471T295 502Q375 502 437 473T534 385T570 240Q570 159 533 103T432 18T291 -11ZM293 137Q322 137 341 148T371 183T382 240Q382 273 372 298T344 339T297
354Q269 354 249 341T219 304T208 245Q208 213 218 189T247 151T293 137ZM347 755Q347 742 340 734T325 726Q312 726 302 730T282 740Q270 747 256 753T222 760Q192 760 164 745T117 695T98 600H224Q224 609 232 619T251 629Q265 629 275 624T296 611Q306 605 319
600T349 595Q380 595 407 610T451 660T469 755H347Z" />
<glyph unicode="&#xf6;" horiz-adv-x="590" d="M291 -11Q213 -11 152 17T55 102T20 245Q20 327 57 384T156 471T295 502Q375 502 437 473T534 385T570 240Q570 159 533 103T432 18T291 -11ZM293 137Q322 137 341 148T371 183T382 240Q382 273 372 298T344 339T297
354Q269 354 249 341T219 304T208 245Q208 213 218 189T247 151T293 137ZM185 603Q221 603 245 627T269 686Q269 720 245 744T185 769Q152 769 127 745T102 686Q102 651 127 627T185 603ZM396 603Q432 603 456 627T480 686Q480 720 456 744T396 769Q363 769 338
745T313 686Q313 651 338 627T396 603Z" />
<glyph unicode="&#xf7;" horiz-adv-x="512" d="M256 368Q294 368 320 394T347 459Q347 498 321 524T256 551Q217 551 191 525T164 459Q164 420 190 394T256 368ZM472 340H30L41 207H482L472 340ZM256 0Q294 0 320 26T347 91Q347 130 321 156T256 183Q217 183 191
157T164 91Q164 52 190 26T256 0Z" />
<glyph unicode="&#xf8;" horiz-adv-x="590" d="M291 -11Q213 -11 152 17T55 102T20 245Q20 327 57 384T156 471T295 502Q375 502 437 473T534 385T570 240Q570 159 533 103T432 18T291 -11ZM293 137Q322 137 341 148T371 183T382 240Q382 273 372 298T344 339T297
354Q269 354 249 341T219 304T208 245Q208 213 218 189T247 151T293 137ZM263 91L187 142L316 380L399 332L263 91Z" />
<glyph unicode="&#xf9;" horiz-adv-x="610" d="M378 484V158Q364 152 346 146T310 135T280 130Q250 130 239 148T228 188V484H46V171Q46 117 64 75T122 8T222 -17Q261 -17 297 -7T365 19T420 49L472 -1H560V484H378ZM261 588L393 610L327 787H147L261 588Z" />
<glyph unicode="&#xfa;" horiz-adv-x="610" d="M378 484V158Q364 152 346 146T310 135T280 130Q250 130 239 148T228 188V484H46V171Q46 117 64 75T122 8T222 -17Q261 -17 297 -7T365 19T420 49L472 -1H560V484H378ZM345 588L459 787H279L213 610L345 588Z" />
<glyph unicode="&#xfb;" horiz-adv-x="610" d="M378 484V158Q364 152 346 146T310 135T280 130Q250 130 239 148T228 188V484H46V171Q46 117 64 75T122 8T222 -17Q261 -17 297 -7T365 19T420 49L472 -1H560V484H378ZM305 650L357 588L530 608L356 787H249L75 608L252
588L305 650Z" />
<glyph unicode="&#xfc;" horiz-adv-x="610" d="M378 484V158Q364 152 346 146T310 135T280 130Q250 130 239 148T228 188V484H46V171Q46 117 64 75T122 8T222 -17Q261 -17 297 -7T365 19T420 49L472 -1H560V484H378ZM195 603Q231 603 255 627T279 686Q279 720
255 744T195 769Q162 769 137 745T112 686Q112 651 137 627T195 603ZM406 603Q442 603 466 627T490 686Q490 720 466 744T406 769Q373 769 348 745T323 686Q323 651 348 627T406 603Z" />
<glyph unicode="&#xfd;" horiz-adv-x="561" d="M180 -2Q175 -16 154 -30T107 -56T56 -78L117 -219Q165 -208 210 -185T289 -129T338 -57L551 485H370L277 211L178 503L10 455L184 9L180 -2ZM317 588L431 787H251L185 610L317 588Z" />
<glyph unicode="&#xfe;" horiz-adv-x="579" d="M310 502Q382 502 438 475T526 392T559 249Q559 163 527 105T437 18T302 -11Q290 -11 274 -8T238 2V-209L56 -219V695L238 706V486Q257 493 276 497T310 502ZM290 129Q313 129 331 143T360 184T371 248Q371 285 361
310T331 349T282 362Q271 362 260 358T238 347V142Q251 136 264 133T290 129Z" />
<glyph unicode="&#xff;" horiz-adv-x="561" d="M180 -2Q175 -16 154 -30T107 -56T56 -78L117 -219Q165 -208 210 -185T289 -129T338 -57L551 485H370L277 211L178 503L10 455L184 9L180 -2ZM167 603Q203 603 227 627T251 686Q251 720 227 744T167 769Q134 769
109 745T84 686Q84 651 109 627T167 603ZM378 603Q414 603 438 627T462 686Q462 720 438 744T378 769Q345 769 320 745T295 686Q295 651 320 627T378 603Z" />
<glyph unicode="&#x2013;" horiz-adv-x="456" d="M416 345H30L41 202H426L416 345Z" />
<glyph unicode="&#x2014;" horiz-adv-x="573" d="M533 345H30L41 202H543L533 345Z" />
<glyph unicode="&#x2018;" horiz-adv-x="243" d="M122 441Q148 441 169 454T202 489T214 533Q214 558 202 579T171 611Q175 624 192 639T223 662L187 742Q143 726 108 695T51 626T30 548Q30 500 57 471T122 441Z" />
<glyph unicode="&#x2019;" horiz-adv-x="243" d="M121 742Q95 742 74 729T41 694T29 650Q29 634 34 619T50 592T72 572Q68 559 51 544T20 521L56 441Q100 458 135 488T192 557T213 635Q213 683 186 712T121 742Z" />
<glyph unicode="&#x201a;" horiz-adv-x="243" d="M121 147Q95 147 74 134T41 99T29 55Q29 39 34 24T50 -3T72 -23Q68 -36 51 -51T20 -74L56 -154Q100 -137 135 -107T192 -38T213 40Q213 88 186 117T121 147Z" />
<glyph unicode="&#x201c;" horiz-adv-x="453" d="M122 441Q148 441 169 454T202 489T214 533Q214 558 202 579T171 611Q175 624 192 639T223 662L187 742Q143 726 108 695T51 626T30 548Q30 500 57 471T122 441ZM332 441Q358 441 379 454T412 489T424 533Q424
550 419 565T403 592T381 611Q385 624 402 639T433 662L397 742Q353 726 318 695T261 626T240 548Q240 500 267 471T332 441Z" />
<glyph unicode="&#x201d;" horiz-adv-x="453" d="M331 742Q305 742 284 729T251 694T239 650Q239 625 251 604T282 572Q278 559 261 544T230 521L266 441Q310 458 345 488T402 557T423 635Q423 683 396 712T331 742ZM121 742Q95 742 74 729T41 694T29 650Q29 634
34 619T50 592T72 572Q68 559 51 544T20 521L56 441Q100 458 135 488T192 557T213 635Q213 683 186 712T121 742Z" />
<glyph unicode="&#x201e;" horiz-adv-x="453" d="M121 147Q95 147 74 134T41 99T29 55Q29 39 34 24T50 -3T72 -23Q68 -36 51 -51T20 -74L56 -154Q100 -137 135 -107T192 -38T213 40Q213 88 186 117T121 147ZM331 147Q305 147 284 134T251 99T239 55Q239 30 251
9T282 -23Q278 -36 261 -51T230 -74L266 -154Q310 -137 345 -107T402 -38T423 40Q423 88 396 117T331 147Z" />
<glyph unicode="&#x2022;" horiz-adv-x="308" d="M153 208Q187 208 215 224T261 269T278 331Q278 365 261 393T216 438T153 455Q119 455 91 438T47 393T30 331Q30 297 46 269T91 225T153 208Z" />
<glyph unicode="&#x2039;" horiz-adv-x="270" d="M30 219L217 58L250 194L184 252L250 309L217 446L30 284V219Z" />
<glyph unicode="&#x203a;" horiz-adv-x="270" d="M240 285L53 446L20 310L86 252L20 195L53 58L240 220V285Z" />
</font>
</defs>
</svg>
